<svg width="100" height="109" viewBox="0 0 100 109"  xmlns="http://www.w3.org/2000/svg">
<path d="M2.3824 21.7694C4.04048 18.9714 6.21369 16.6586 8.90204 14.831C11.5904 13.0196 14.6651 11.661 18.11 10.7715C19.8164 10.3348 21.5389 9.99516 23.2774 9.78491L7.54982 0.646936C4.37853 -1.19683 0.418457 1.11596 0.418457 4.78733V26.864C0.820904 25.0202 1.48092 23.322 2.3824 21.7694Z" fill="white"/>
<path d="M34.2723 63.3188C32.5337 61.9441 30.4893 60.6341 28.1229 59.3725C25.7565 58.111 23.197 56.7848 20.4764 55.3939C17.5949 53.9221 14.8905 52.4342 12.3953 50.93C9.88402 49.4259 7.71081 47.76 5.87565 45.9324C4.0244 44.121 2.57559 42.0508 1.51313 39.7542C1.04629 38.7515 0.692136 37.6678 0.43457 36.5034V79.7025C1.60972 80.6567 2.96194 81.5301 4.52343 82.3226C6.35859 83.2445 8.27423 84.037 10.3026 84.6677C12.3309 85.2985 14.3592 85.7999 16.4037 86.1395C18.4481 86.4953 20.3315 86.6571 22.0701 86.6571C28.0424 86.6571 32.5015 85.5411 35.4474 83.3253C38.3934 81.0934 39.8583 77.9073 39.8583 73.7183C39.8583 71.4702 39.3753 69.5133 38.3934 67.8636C37.3631 66.2139 36.0109 64.6936 34.2723 63.3188Z" fill="white"/>
<path d="M73.9697 40.854L73.9858 67.7018C73.9858 68.8178 75.1932 69.5132 76.159 68.9634L99.2917 55.5556C100.258 54.9895 100.258 53.5986 99.2917 53.0487L76.1429 39.6248C75.161 39.0426 73.9697 39.738 73.9697 40.854ZM81.3265 50.3801L87.4275 53.6471C87.9427 53.9221 87.9427 54.6661 87.4275 54.941L81.5679 58.0787C80.763 58.5153 79.7972 57.9169 79.7972 57.0112V51.3182C79.7972 50.5095 80.6342 50.0081 81.3265 50.3801Z" fill="white"/>
<path d="M56.9863 29.3224L53.0906 27.0581V27.1066C52.9135 26.9934 52.7365 26.864 52.5594 26.7508L49.4203 24.9232C49.0179 24.7291 48.6154 24.535 48.213 24.341C46.4422 23.5485 44.6392 22.8854 42.7719 22.3678C40.9045 21.8503 39.0533 21.4621 37.202 21.2033C35.3508 20.9607 33.5961 20.8313 31.938 20.8313C29.6521 20.8313 27.5755 21.0578 25.7081 21.4944C23.8408 21.9311 22.2632 22.5457 20.9754 23.3382C19.6875 24.1307 18.6895 25.0849 17.9812 26.1847C17.2729 27.2845 16.9187 28.5299 16.9187 29.9046C16.9187 31.4087 17.305 32.7511 18.0938 33.9318C18.8826 35.1124 19.9934 36.2446 21.4583 37.312C22.9071 38.3795 24.6779 39.4146 26.7545 40.4335C28.8311 41.4524 31.1653 42.5037 33.7893 43.5873C37.363 45.0914 40.5665 46.6764 43.3997 48.3746C46.2329 50.0566 48.6798 51.9651 50.7081 54.1C52.7365 56.2187 54.298 58.6609 55.3765 61.378C56.4551 64.1113 57.0024 67.2813 57.0024 70.9042C57.0024 74.2844 56.5517 77.3088 55.6985 79.9451L56.9863 79.2011C60.1093 77.3897 62.041 74.0418 62.041 70.4028V38.1207C62.041 34.4817 60.1093 31.1338 56.9863 29.3224Z" fill="white"/>
<path d="M22.6818 98.3342C17.788 98.3342 13.1358 97.9137 8.70885 97.0889C5.66635 96.5066 2.89751 95.7303 0.402344 94.7599V103.769C0.402344 107.456 4.37852 109.753 7.5498 107.909L24.0823 98.3181C23.6155 98.3181 23.1486 98.3342 22.6818 98.3342Z" fill="white"/>
</svg>
