<svg width="122" height="121" viewBox="0 0 122 121" fill="none" xmlns="http://www.w3.org/2000/svg">
<path d="M61.4643 1.40189C93.6164 1.13796 121.424 27.964 121.018 61.8418C120.571 93.9058 93.8533 121.03 60.6929 120.509C44.2345 120.265 30.0838 114.235 18.6468 102.419C6.92566 90.3056 1.35607 75.6473 1.81625 58.7152C2.74339 27.5377 29.0551 1.09059 61.4643 1.40189ZM25.0894 100.951C45.6083 119.581 78.5521 120.414 99.8154 98.7648C121.2 77.0076 119.441 44.4427 101.365 24.6683C101.245 24.8581 101.112 25.0391 100.966 25.2097C96.6753 29.4822 92.405 33.7502 88.1551 38.0137C88.0469 38.1541 87.8957 38.2552 87.7246 38.3016C87.5536 38.3481 87.372 38.3372 87.2076 38.2708C85.9895 37.9122 84.7511 37.5941 83.5126 37.2963C82.9036 37.1407 82.2877 37.0256 81.6719 36.897L81.5568 36.6873L97.5144 20.8176C76.6437 1.86208 42.3328 1.43573 21.1914 24.9322C1.0989 47.2647 4.39464 79.0716 21.2997 97.1001C26.1181 92.4373 30.7064 87.5377 35.782 82.9764C35.8429 83.2268 35.8632 83.2945 35.8767 83.369C36.1948 85.1826 36.5535 86.9895 36.8174 88.7829C36.8299 88.9144 36.8153 89.0471 36.7746 89.1729C36.7339 89.2986 36.6678 89.4146 36.5805 89.5138C35.3173 90.8221 34.0337 92.117 32.7299 93.3983C30.1988 95.9293 27.6543 98.4265 25.0894 100.951Z" fill="#BACEA3"/>
<path d="M60.0629 0.302707V0.302754L60.0683 0.30271C92.0536 0.0401496 119.723 26.7306 119.319 60.4387C118.875 92.3411 92.2891 119.328 59.299 118.809L59.2987 118.809C42.9188 118.567 28.8445 112.569 17.4638 100.811C5.8002 88.7572 0.259617 74.1778 0.71757 57.3246C1.64017 26.3067 27.8209 -0.0069888 60.0629 0.302707ZM23.4804 99.3377L23.2543 99.5603L23.4892 99.7737C44.1207 118.507 77.2485 119.346 98.6308 97.5759C120.135 75.6971 118.364 42.9506 100.188 23.0667L99.9228 22.7766L99.7129 23.1089C99.6028 23.2832 99.4805 23.4495 99.3469 23.6065C95.059 27.8764 90.7914 32.1418 86.5441 36.4027L86.5306 36.4162L86.5189 36.4313C86.4507 36.5199 86.3553 36.5836 86.2475 36.6129C86.1396 36.6422 86.0251 36.6354 85.9215 36.5935L85.9079 36.588L85.8938 36.5839C84.6698 36.2235 83.4268 35.9042 82.1862 35.6059C81.7184 35.4865 81.2445 35.3901 80.7782 35.2952C80.7223 35.2838 80.6665 35.2725 80.6108 35.2611L96.3274 19.6312L96.5512 19.4086L96.3176 19.1964C75.331 0.135625 40.8289 -0.294804 19.5698 23.3324L19.7791 23.5207L19.5698 23.3324C-0.634947 45.7897 2.67909 77.773 19.6823 95.9061L19.8907 96.1284L20.1097 95.9165C21.8584 94.2243 23.5723 92.5056 25.2878 90.7854C28.196 87.869 31.1089 84.9481 34.2041 82.1432C34.2974 82.6727 34.3937 83.1999 34.4896 83.7252C34.7158 84.9642 34.9402 86.1932 35.1208 87.419C35.1283 87.5075 35.118 87.5967 35.0906 87.6812C35.0632 87.7659 35.0191 87.8443 34.9609 87.9117C33.7012 89.2163 32.4212 90.5074 31.121 91.7851L31.1192 91.787C28.9203 93.9859 26.7112 96.1592 24.4864 98.3479C24.1514 98.6775 23.8161 99.0074 23.4804 99.3377Z" stroke="#4A5B51" stroke-width="0.6"/>
<path d="M60.079 15.3889C63.2191 18.3463 65.6892 21.7165 66.657 25.9664C68.1661 32.6256 66.8532 38.6486 62.3664 43.8865C61.8183 44.5633 61.1889 45.1182 60.6137 45.7408C60.2008 46.1875 59.8354 46.1672 59.3955 45.7408C57.097 43.5914 55.2856 40.9747 54.0831 38.0666C52.8578 34.8767 52.4733 31.4253 52.9665 28.044C53.5891 22.894 56.1607 18.7997 59.9843 15.416C59.991 15.4025 60.0249 15.4025 60.079 15.3889Z" fill="#BACEA3"/>
<path d="M60.735 58.9368C60.7611 55.8387 61.2961 52.766 62.3186 49.8414C64.6601 43.7034 69.201 40.367 75.6436 39.6294C77.3179 39.5281 78.9977 39.5689 80.6651 39.7512C81.5584 39.8053 81.7952 40.1302 81.7817 41.1047C81.7343 47.1953 79.3996 52.122 74.5202 55.8103C71.0194 58.3355 67.0366 60.1138 62.8194 61.0347C62.4291 61.1383 62.0338 61.2218 61.6351 61.2851C60.9177 61.3799 60.7282 61.2107 60.6741 60.4866C60.6606 60.2228 60.6606 59.9585 60.6741 59.6948C60.6673 59.4173 60.7147 59.1805 60.735 58.9368Z" fill="#BACEA3"/>
<path d="M77.8091 79.3069C78.743 79.361 79.6702 79.4084 80.5973 79.4761C81.5244 79.5437 81.7613 79.8144 81.7884 80.7416C81.8031 82.7865 81.4971 84.8212 80.8815 86.7714C79.6296 91.0484 76.8211 94.0937 73.1734 96.4826C69.5258 98.8715 65.5533 100.151 61.3913 101.084C60.9244 101.186 60.7146 101.037 60.7146 100.55C60.7687 99.1355 60.7823 97.7211 60.8973 96.3067C61.059 93.3525 61.809 90.4604 63.1035 87.8C65.9255 82.3861 70.5477 79.7332 76.5436 79.361C76.9632 79.361 77.3895 79.361 77.8159 79.361L77.8091 79.3069Z" fill="#BACEA3"/>
<path d="M42.0161 39.4133C46.7533 39.4742 50.8746 40.9495 54.2719 44.2994C56.5457 46.5462 57.6556 49.3614 58.4135 52.4203C58.9953 54.9764 59.2971 57.5882 59.3136 60.2096C59.3136 61.2044 59.0632 61.4413 58.1158 61.2247C53.2229 60.1284 48.7023 58.3621 44.7839 55.2356C43.0071 53.8515 41.5262 52.1249 40.4288 50.158C39.3314 48.1912 38.64 46.0241 38.3955 43.7851C38.2715 42.8647 38.1947 41.9386 38.1654 41.0104C38.1654 40.1984 38.409 39.9006 39.1941 39.7788C40.128 39.6299 41.0754 39.5351 42.0161 39.4133Z" fill="#BACEA3"/>
<path d="M59.273 98.8314C59.273 99.4404 59.273 100.043 59.273 100.652C59.273 101.031 59.07 101.166 58.6707 101.085C53.6758 100.206 48.9579 98.1636 44.899 95.1228C40.9536 92.0978 38.9233 88.0509 38.3955 83.1851C38.294 82.2444 38.3143 81.2834 38.2669 80.336C38.2575 80.247 38.2659 80.1571 38.2915 80.0714C38.3172 79.9857 38.3595 79.906 38.4162 79.8368C38.4728 79.7675 38.5426 79.7102 38.6215 79.6681C38.7004 79.6261 38.7869 79.6 38.876 79.5916C42.2074 78.9112 45.6656 79.229 48.8173 80.5052C54.0147 82.5354 57.06 86.4741 58.2917 91.8136C58.8196 94.1077 59.0497 96.4763 59.4151 98.8043L59.273 98.8314Z" fill="#BACEA3"/>
<path d="M60.6675 78.8064C60.7166 75.6871 61.2744 72.5966 62.3187 69.6569C64.349 64.1685 68.3417 60.9066 74.0061 59.7358C76.3094 59.3459 78.66 59.3254 80.9698 59.6749C81.5179 59.7358 81.6465 60.1148 81.6465 60.5817C81.8077 63.4993 81.2475 66.4117 80.0156 69.0613C78.6147 72.1067 76.3205 74.3196 73.6271 76.2145C69.9862 78.7726 65.8987 80.1937 61.6014 81.1412C60.8231 81.3104 60.7149 81.2224 60.6742 80.4644C60.6675 79.896 60.6675 79.3478 60.6675 78.8064Z" fill="#BACEA3"/>
<path d="M42.0631 59.4651C46.0011 59.326 49.8642 60.5658 52.9857 62.9707C55.4762 64.8655 56.8499 67.4913 57.8312 70.3675C58.8746 73.5385 59.3756 76.8628 59.3133 80.2005C59.3133 81.2089 59.3133 81.2427 58.2846 81.0464C52.3699 79.8757 47.0304 77.5409 42.7534 73.1556C40.4764 70.7632 39.0066 67.7172 38.5508 64.446C38.3671 63.3076 38.2473 62.1599 38.1922 61.0081C38.1448 59.9862 38.5373 59.614 39.5456 59.5396C40.0735 59.4922 40.6014 59.4651 41.1224 59.4448C41.4134 59.4516 41.718 59.4651 42.0631 59.4651Z" fill="#BACEA3"/>
<path d="M58.6235 14.0253C54.9208 17.3465 52.4505 21.3399 51.8462 26.3386L51.8453 26.3459L51.8452 26.3458C51.3597 29.675 51.7379 33.0731 52.9437 36.214C54.1298 39.0811 55.9161 41.661 58.1823 43.7803L58.1863 43.7839L58.1862 43.784C58.3859 43.9775 58.5167 44.0257 58.6005 44.0268C58.6765 44.0277 58.7955 43.9902 58.9752 43.7958L58.6235 14.0253ZM58.6235 14.0253C61.6577 16.9201 64.0137 20.1958 64.9464 24.2916L58.6235 14.0253Z" stroke="#4A5B51" stroke-width="0.6"/>
<path d="M59.6159 57.2203L59.6168 57.2091L59.6169 57.1979C59.6427 54.1341 60.1715 51.0953 61.1823 48.203C62.3359 45.1807 64.0248 42.8622 66.2064 41.2078C68.3876 39.5537 71.0774 38.5515 74.2517 38.1869C75.9064 38.0873 77.5665 38.1278 79.2144 38.3079L79.2216 38.3087L79.2288 38.3092C79.6561 38.3351 79.8259 38.4231 79.9118 38.5296C80.0085 38.6495 80.0703 38.8757 80.0636 39.359L80.0636 39.3609C80.0169 45.3622 77.7232 50.1986 72.9239 53.8275C69.4571 56.3276 65.5132 58.0883 61.3373 59.0002L61.3372 58.9999L61.3243 59.0033C60.9452 59.1039 60.5612 59.1851 60.1738 59.2468C59.8152 59.2937 59.7147 59.2503 59.6809 59.2219C59.6434 59.1904 59.5831 59.0918 59.5554 58.7262C59.5426 58.4739 59.5427 58.221 59.5556 57.9687L59.5562 57.9574L59.5559 57.946C59.5518 57.7783 59.5682 57.6438 59.5868 57.4913C59.5968 57.4089 59.6075 57.3212 59.6159 57.2203Z" stroke="#4A5B51" stroke-width="0.6"/>
<path d="M76.7376 77.9196L76.7334 77.8855C76.8375 77.8914 76.9414 77.8973 77.0452 77.9031C77.753 77.943 78.4548 77.9825 79.1574 78.0338C79.6131 78.0671 79.7983 78.1479 79.8925 78.2493C79.9889 78.353 80.0567 78.5485 80.0703 79.0056C80.0844 81.0181 79.7831 83.0204 79.1774 84.9396L79.1773 84.9396L79.1755 84.9456C77.9493 89.1345 75.1986 92.1275 71.591 94.4902C67.9866 96.8507 64.0541 98.1198 59.9085 99.0501C59.6953 99.0963 59.6432 99.0591 59.6429 99.0589C59.6424 99.0585 59.6404 99.0569 59.6371 99.052C59.6335 99.0466 59.6275 99.0358 59.6212 99.0169C59.6081 98.9778 59.5969 98.9136 59.5965 98.8138C59.6121 98.4063 59.6243 98.0011 59.6364 97.5972C59.6667 96.59 59.6967 95.5917 59.7782 94.5895L59.7783 94.5895L59.7788 94.5816C59.9382 91.6687 60.6775 88.817 61.9534 86.1935C64.7202 80.8882 69.2378 78.2881 75.1349 77.9196H75.1354H75.1378H75.1403H75.1427H75.1452H75.1477H75.1501H75.1526H75.155H75.1575H75.16H75.1624H75.1649H75.1673H75.1698H75.1723H75.1747H75.1772H75.1796H75.1821H75.1846H75.187H75.1895H75.192H75.1944H75.1969H75.1993H75.2018H75.2043H75.2067H75.2092H75.2117H75.2141H75.2166H75.2191H75.2215H75.224H75.2264H75.2289H75.2314H75.2338H75.2363H75.2388H75.2412H75.2437H75.2462H75.2486H75.2511H75.2536H75.256H75.2585H75.261H75.2634H75.2659H75.2684H75.2708H75.2733H75.2758H75.2782H75.2807H75.2832H75.2856H75.2881H75.2906H75.293H75.2955H75.298H75.3004H75.3029H75.3054H75.3079H75.3103H75.3128H75.3153H75.3177H75.3202H75.3227H75.3251H75.3276H75.3301H75.3326H75.335H75.3375H75.34H75.3424H75.3449H75.3474H75.3498H75.3523H75.3548H75.3573H75.3597H75.3622H75.3647H75.3671H75.3696H75.3721H75.3746H75.377H75.3795H75.382H75.3845H75.3869H75.3894H75.3919H75.3944H75.3968H75.3993H75.4018H75.4042H75.4067H75.4092H75.4117H75.4141H75.4166H75.4191H75.4216H75.424H75.4265H75.429H75.4315H75.4339H75.4364H75.4389H75.4414H75.4438H75.4463H75.4488H75.4513H75.4538H75.4562H75.4587H75.4612H75.4637H75.4661H75.4686H75.4711H75.4736H75.476H75.4785H75.481H75.4835H75.486H75.4884H75.4909H75.4934H75.4959H75.4983H75.5008H75.5033H75.5058H75.5083H75.5107H75.5132H75.5157H75.5182H75.5207H75.5231H75.5256H75.5281H75.5306H75.5331H75.5355H75.538H75.5405H75.543H75.5455H75.5479H75.5504H75.5529H75.5554H75.5579H75.5603H75.5628H75.5653H75.5678H75.5703H75.5727H75.5752H75.5777H75.5802H75.5827H75.5852H75.5876H75.5901H75.5926H75.5951H75.5976H75.6H75.6025H75.605H75.6075H75.61H75.6125H75.6149H75.6174H75.6199H75.6224H75.6249H75.6274H75.6298H75.6323H75.6348H75.6373H75.6398H75.6423H75.6447H75.6472H75.6497H75.6522H75.6547H75.6572H75.6597H75.6621H75.6646H75.6671H75.6696H75.6721H75.6746H75.6771H75.6795H75.682H75.6845H75.687H75.6895H75.692H75.6945H75.6969H75.6994H75.7019H75.7044H75.7069H75.7094H75.7119H75.7143H75.7168H75.7193H75.7218H75.7243H75.7268H75.7293H75.7318H75.7342H75.7367H75.7392H75.7417H75.7442H75.7467H75.7492H75.7517H75.7541H75.7566H75.7591H75.7616H75.7641H75.7666H75.7691H75.7716H75.7741H75.7765H75.779H75.7815H75.784H75.7865H75.789H75.7915H75.794H75.7965H75.7989H75.8014H75.8039H75.8064H75.8089H75.8114H75.8139H75.8164H75.8189H75.8213H75.8238H75.8263H75.8288H75.8313H75.8338H75.8363H75.8388H75.8413H75.8438H75.8463H75.8487H75.8512H75.8537H75.8562H75.8587H75.8612H75.8637H75.8662H75.8687H75.8712H75.8737H75.8761H75.8786H75.8811H75.8836H75.8861H75.8886H75.8911H75.8936H75.8961H75.8986H75.9011H75.9036H75.906H75.9085H75.911H75.9135H75.916H75.9185H75.921H75.9235H75.926H75.9285H75.931H75.9335H75.936H75.9385H75.9409H75.9434H75.9459H75.9484H75.9509H75.9534H75.9559H75.9584H75.9609H75.9634H75.9659H75.9684H75.9709H75.9734H75.9759H75.9783H75.9808H75.9833H75.9858H75.9883H75.9908H75.9933H75.9958H75.9983H76.0008H76.0033H76.0058H76.0083H76.0108H76.0133H76.0158H76.0183H76.0208H76.0232H76.0257H76.0282H76.0307H76.0332H76.0357H76.0382H76.0407H76.0432H76.0457H76.0482H76.0507H76.0532H76.0557H76.0582H76.0607H76.0632H76.0657H76.0682H76.0707H76.0731H76.0756H76.0781H76.0806H76.0831H76.0856H76.0881H76.0906H76.0931H76.0956H76.0981H76.1006H76.1031H76.1056H76.1081H76.1106H76.1131H76.1156H76.1181H76.1206H76.1231H76.1256H76.1281H76.1306H76.1331H76.1355H76.138H76.1405H76.143H76.1455H76.148H76.1505H76.153H76.1555H76.158H76.1605H76.163H76.1655H76.168H76.1705H76.173H76.1755H76.178H76.1805H76.183H76.1855H76.188H76.1905H76.193H76.1955H76.198H76.2005H76.203H76.2055H76.208H76.2105H76.213H76.2155H76.2179H76.2204H76.2229H76.2254H76.2279H76.2304H76.2329H76.2354H76.2379H76.2404H76.2429H76.2454H76.2479H76.2504H76.2529H76.2554H76.2579H76.2604H76.2629H76.2654H76.2679H76.2704H76.2729H76.2754H76.2779H76.2804H76.2829H76.2854H76.2879H76.2904H76.2929H76.2954H76.2979H76.3004H76.3029H76.3054H76.3079H76.3104H76.3129H76.3154H76.3179H76.3204H76.3229H76.3254H76.3278H76.3303H76.3328H76.3353H76.3378H76.3403H76.3428H76.3453H76.3478H76.3503H76.3528H76.3553H76.3578H76.3603H76.3628H76.3653H76.3678H76.3703H76.3728H76.3753H76.3778H76.3803H76.3828H76.3853H76.3878H76.3903H76.3928H76.3953H76.3978H76.7376Z" stroke="#4A5B51" stroke-width="0.6"/>
<path d="M56.9955 50.6789C57.5772 53.235 57.879 55.8468 57.8955 58.4682C57.8955 59.463 57.6451 59.6998 56.6977 59.4833C51.8048 58.387 47.2842 56.6207 43.3659 53.4941C41.589 52.1101 40.1081 50.3835 39.0107 48.4166C37.9134 46.4497 37.2219 44.2826 36.9774 42.0436C36.8534 41.1233 36.7766 40.1972 36.7473 39.269M56.9955 50.6789C56.2375 47.62 55.1277 44.8047 52.8538 42.558M56.9955 50.6789L56.7029 50.7454C56.7031 50.7464 56.7034 50.7473 56.7036 50.7482M56.9955 50.6789L56.7043 50.751C56.704 50.7501 56.7038 50.7491 56.7036 50.7482M52.8538 42.558C49.4565 39.2081 45.3352 37.7328 40.598 37.6719M52.8538 42.558L52.6432 42.7716C52.6431 42.7715 52.643 42.7714 52.6429 42.7714M52.8538 42.558L52.6429 42.7714M40.598 37.6719C40.2844 37.7125 39.9701 37.7501 39.6558 37.7877C39.0272 37.8629 38.3986 37.9381 37.776 38.0373C36.9909 38.1591 36.7473 38.4569 36.7473 39.269M40.598 37.6719L40.5941 37.9719C40.6012 37.9719 40.6082 37.972 40.6153 37.9721M40.598 37.6719L40.6365 37.9694C40.6294 37.9703 40.6224 37.9712 40.6153 37.9721M36.7473 39.269H37.0473C37.0473 39.2674 37.0473 39.2659 37.0473 39.2643M36.7473 39.269L37.0472 39.2595C37.0472 39.2611 37.0473 39.2627 37.0473 39.2643M37.0473 39.2643C37.0764 40.1807 37.1523 41.095 37.2747 42.0036L37.2757 42.0111L37.2756 42.0111C37.5158 44.2101 38.1949 46.3386 39.2727 48.2704C40.3505 50.2022 41.8051 51.8981 43.5502 53.2574L43.553 53.2596L43.553 53.2596C47.4248 56.3491 51.8988 58.1006 56.7633 59.1905L56.7645 59.1908C56.9912 59.2426 57.1538 59.2617 57.2706 59.2563C57.3832 59.251 57.4312 59.2243 57.4557 59.203C57.4824 59.18 57.5203 59.1296 57.55 59.0066C57.58 58.8821 57.5955 58.7086 57.5955 58.4692M37.0473 39.2643C37.0478 38.8789 37.1089 38.6931 37.1979 38.5862C37.2852 38.4812 37.4504 38.3914 37.822 38.3338L37.822 38.3338L37.8232 38.3336C38.4403 38.2352 39.0585 38.1613 39.6835 38.0865C39.9922 38.0496 40.3026 38.0125 40.6153 37.9721M57.5955 58.4692C57.579 55.8708 57.28 53.2819 56.7036 50.7482M57.5955 58.4692C57.5955 58.4688 57.5955 58.4685 57.5955 58.4682H57.8954L57.5955 58.4701C57.5955 58.4698 57.5955 58.4695 57.5955 58.4692ZM40.6153 37.9721C45.2771 38.0363 49.3134 39.4884 52.6429 42.7714M52.6429 42.7714C54.8589 44.9609 55.9511 47.7126 56.7036 50.7482" stroke="#4A5B51" stroke-width="0.6"/>
<path d="M57.5549 96.8414L57.6562 96.8221C57.5577 96.1753 57.4686 95.5298 57.3799 94.8864C57.1592 93.2866 56.9404 91.7 56.5813 90.1393C55.3693 84.8851 52.3848 81.0331 47.2901 79.0429L47.2866 79.0416L47.2866 79.0416C44.1897 77.7876 40.7915 77.4753 37.5179 78.1438L37.5022 78.147L37.4862 78.1485C37.4367 78.1532 37.3885 78.1677 37.3446 78.1912C37.3006 78.2146 37.2618 78.2465 37.2303 78.285C37.1987 78.3236 37.1751 78.368 37.1609 78.4157C37.1466 78.4634 37.142 78.5134 37.1472 78.563L37.148 78.5711L37.1484 78.5793C37.1662 78.9348 37.1746 79.2825 37.1828 79.6258C37.1974 80.2282 37.2115 80.8171 37.2756 81.411L57.5549 96.8414ZM57.5549 96.8414V97.0897M57.5549 96.8414V97.0897M57.5549 97.0897V97.0932V97.0968V97.1004V97.104V97.1075V97.1111V97.1147V97.1182V97.1218V97.1254V97.1289V97.1325V97.1361V97.1396V97.1432V97.1468V97.1503V97.1539V97.1575V97.161V97.1646V97.1682V97.1717V97.1753V97.1789V97.1824V97.186V97.1895V97.1931V97.1967V97.2002V97.2038V97.2074V97.2109V97.2145V97.2181V97.2216V97.2252V97.2287V97.2323V97.2359V97.2394V97.243V97.2466V97.2501V97.2537V97.2572V97.2608V97.2644V97.2679V97.2715V97.2751V97.2786V97.2822V97.2857V97.2893V97.2929V97.2964V97.3V97.3035V97.3071V97.3107V97.3142V97.3178V97.3213V97.3249V97.3285V97.332V97.3356V97.3391V97.3427V97.3463V97.3498V97.3534V97.3569V97.3605V97.3641V97.3676V97.3712V97.3747V97.3783V97.3819V97.3854V97.389V97.3925V97.3961V97.3996V97.4032V97.4068V97.4103V97.4139V97.4174V97.421V97.4245V97.4281V97.4317V97.4352V97.4388V97.4423V97.4459V97.4494V97.453V97.4566V97.4601V97.4637V97.4672V97.4708V97.4743V97.4779V97.4814V97.485V97.4886V97.4921V97.4957V97.4992V97.5028V97.5063V97.5099V97.5134V97.517V97.5205V97.5241V97.5277V97.5312V97.5348V97.5383V97.5419V97.5454V97.549V97.5525V97.5561V97.5596V97.5632V97.5667V97.5703V97.5739V97.5774V97.581V97.5845V97.5881V97.5916V97.5952V97.5987V97.6023V97.6058V97.6094V97.6129V97.6165V97.62V97.6236V97.6271V97.6307V97.6342V97.6378V97.6414V97.6449V97.6485V97.652V97.6556V97.6591V97.6627V97.6662V97.6698V97.6733V97.6769V97.6804V97.684V97.6875V97.6911V97.6946V97.6982V97.7017V97.7053V97.7088V97.7124V97.7159V97.7195V97.723V97.7266V97.7301V97.7337V97.7372V97.7408V97.7443V97.7479V97.7514V97.755V97.7585V97.7621V97.7656V97.7692V97.7727V97.7763V97.7798V97.7834V97.7869V97.7905V97.794V97.7976V97.8011V97.8047V97.8082V97.8118V97.8153V97.8189V97.8224V97.826V97.8295V97.8331V97.8366V97.8402V97.8437V97.8473V97.8508V97.8544V97.8579V97.8615V97.865V97.8686V97.8721V97.8757V97.8792V97.8828V97.8863V97.8899V97.8934V97.897V97.9005V97.9041V97.9076V97.9112V97.9147V97.9183V97.9218V97.9254V97.9289V97.9325V97.936V97.9396V97.9431V97.9467V97.9502V97.9538V97.9573V97.9609V97.9644V97.968V97.9715V97.9751V97.9786V97.9822V97.9857V97.9893V97.9928V97.9963V97.9999V98.0034V98.007V98.0105V98.0141V98.0176V98.0212V98.0247V98.0283V98.0318V98.0354V98.0389V98.0425V98.046V98.0496V98.0531V98.0567V98.0602V98.0638V98.0673V98.0709V98.0744V98.078V98.0815V98.0851V98.0886V98.0922V98.0957V98.0993V98.1028V98.1064V98.1099V98.1135V98.117V98.1206V98.1241V98.1277V98.1312V98.1348V98.1383V98.1419V98.1454V98.149V98.1525V98.1561V98.1596V98.1632V98.1667V98.1703V98.1738V98.1774V98.1809V98.1845V98.188V98.1916V98.1951V98.1987V98.2022V98.2058V98.2093V98.2129V98.2164V98.22V98.2235V98.2271V98.2306V98.2342V98.2377V98.2413V98.2448V98.2484V98.2519V98.2555V98.259V98.2626V98.2661V98.2697V98.2732V98.2768V98.2803V98.2839V98.2874V98.291V98.2945V98.2981V98.3016V98.3052V98.3087V98.3123V98.3158V98.3194V98.3229V98.3265V98.33V98.3336V98.3371V98.3407V98.3442V98.3478V98.3513V98.3549V98.3584V98.362V98.3655V98.3691V98.3727V98.3762V98.3798V98.3833V98.3869V98.3904V98.394V98.3975V98.4011V98.4046V98.4082V98.4117V98.4153V98.4188V98.4224V98.4259V98.4295V98.4331V98.4366V98.4402V98.4437V98.4473V98.4508V98.4544V98.4579V98.4615V98.465V98.4686V98.4721V98.4757V98.4793V98.4828V98.4864V98.4899V98.4935V98.497V98.5006V98.5041V98.5077V98.5112V98.5148V98.5184V98.5219V98.5255V98.529V98.5326V98.5361V98.5397V98.5432V98.5468V98.5504V98.5539V98.5575V98.561V98.5646V98.5681V98.5717V98.5753V98.5788V98.5824V98.5859V98.5895V98.593V98.5966V98.6002V98.6037V98.6073V98.6108V98.6144V98.6179V98.6215V98.6251V98.6286V98.6322V98.6357V98.6393V98.6429V98.6464V98.65V98.6535V98.6571V98.6607V98.6642V98.6678V98.6713V98.6749V98.6784V98.682V98.6856V98.6891V98.6927V98.6963V98.6998V98.7034V98.7069V98.7105V98.7141V98.7176V98.7212V98.7247V98.7283V98.7319V98.7354V98.739V98.7425V98.7461V98.7497V98.7532V98.7568V98.7604V98.7639V98.7675V98.771V98.7746V98.7782V98.7817V98.7853V98.7889V98.7924V98.796V98.7996V98.8031V98.8067V98.8103V98.8138V98.8174V98.8209V98.8245V98.8281V98.8316V98.8352V98.8388V98.8423V98.8459V98.8495V98.853V98.8566V98.8602V98.8637V98.8673V98.8709V98.8744V98.878V98.8816V98.8851V98.8887V98.8923V98.8958V98.8994V98.903V98.9065V98.9101C57.5549 98.98 57.5453 99.02 57.5375 99.04C57.5338 99.0493 57.531 99.0533 57.5303 99.0541C57.5303 99.0542 57.5302 99.0543 57.5301 99.0544L57.5301 99.0544L57.5289 99.055C57.5277 99.0556 57.5257 99.0566 57.5224 99.0576C57.5159 99.0599 57.5044 99.0628 57.4866 99.0645C57.4496 99.068 57.3931 99.0657 57.3124 99.0493L57.3124 99.0491M57.5549 97.0897L57.3124 99.0491M57.3124 99.0491L57.3046 99.0478M57.3124 99.0491L57.3046 99.0478M57.3046 99.0478C52.3566 98.1771 47.6831 96.154 43.6621 93.142M57.3046 99.0478L43.6621 93.142M43.6621 93.142C39.79 90.1727 37.7957 86.2046 37.2756 81.4112L43.6621 93.142Z" stroke="#4A5B51" stroke-width="0.6"/>
<path d="M79.5069 58.2301L79.5069 58.2303L79.5187 58.2316C79.7191 58.2539 79.798 58.3245 79.8415 58.3938C79.897 58.4824 79.9285 58.6249 79.9285 58.8403V58.8486L79.929 58.8568C80.0875 61.7252 79.5368 64.5885 78.3256 67.1934L78.325 67.1945C76.9546 70.1737 74.7064 72.3494 72.0365 74.2277C68.4402 76.7545 64.3949 78.164 60.1193 79.1067C59.9265 79.1486 59.7972 79.1693 59.7067 79.1721C59.6588 79.1736 59.634 79.1695 59.6232 79.1668C59.6183 79.1578 59.6095 79.138 59.5999 79.0996C59.5797 79.0186 59.5662 78.898 59.5562 78.7131C59.5495 78.1498 59.5495 77.6062 59.5495 77.0673C59.5984 73.9821 60.15 70.9254 61.1828 68.0177C63.175 62.6339 67.079 59.4409 72.6435 58.2892C74.9137 57.9056 77.2304 57.8856 79.5069 58.2301ZM59.6273 79.1731C59.6273 79.1732 59.627 79.1728 59.6264 79.172L59.6273 79.1731Z" stroke="#4A5B51" stroke-width="0.6"/>
<path d="M40.645 58.0234V58.0236L40.6556 58.0232C44.5238 57.8866 48.3184 59.1044 51.3846 61.4666L51.386 61.4677C53.8082 63.3106 55.1563 65.8715 56.1287 68.7211C57.1611 71.8596 57.6569 75.1498 57.5953 78.4532H57.5952V78.4588C57.5952 78.7184 57.5947 78.8892 57.581 79.0102C57.5761 79.0534 57.5703 79.081 57.5658 79.0977C57.5488 79.0993 57.5212 79.1002 57.4792 79.0977C57.3579 79.0904 57.1857 79.0602 56.9237 79.0102C51.0516 77.8478 45.7743 75.535 41.5514 71.2058C39.3183 68.859 37.8769 65.8713 37.4299 62.6629L37.4299 62.6628L37.4289 62.6564C37.2469 61.5293 37.1284 60.3928 37.0737 59.2523C37.0515 58.7712 37.1383 58.5248 37.2726 58.3833C37.4115 58.2368 37.6659 58.1328 38.1496 58.0971L38.1496 58.0971L38.1544 58.0967C38.6718 58.0502 39.1908 58.0234 39.7067 58.0033C39.7878 58.0052 39.8716 58.0077 39.958 58.0103C40.1705 58.0166 40.3993 58.0234 40.645 58.0234Z" stroke="#4A5B51" stroke-width="0.6"/>
</svg>
