<svg aria-hidden="true" style="position:absolute;width:0;height:0;overflow:hidden" xmlns="http://www.w3.org/2000/svg">
  <defs>
    <symbol id="icon-tiktok" viewBox="0 0 32 32">
      <path fill="#519484" style="fill:var(--color1, #519484)" d="M4 0h24a4 4 0 0 1 4 4v24a4 4 0 0 1-4 4H4a4 4 0 0 1-4-4V4a4 4 0 0 1 4-4z" />
      <path fill="#fff" style="fill:var(--color2, #fff)" d="M13.881 26.106a6.427 6.427 0 0 1-4.566-1.87 6.283 6.283 0 0 1-1.881-4.921 6.347 6.347 0 0 1 1.596-3.817 6.424 6.424 0 0 1 4.852-2.17c.321 0 .648.024.97.072a.35.35 0 0 1 .299.346v3.235a.352.352 0 0 1-.46.333 2.56 2.56 0 0 0-.799-.129c-.687 0-1.331.269-1.812.758a2.509 2.509 0 0 0-.727 1.813 2.52 2.52 0 0 0 1.239 2.135 2.535 2.535 0 0 0 2.099.231 2.528 2.528 0 0 0 1.741-2.403l.004-13.474a.35.35 0 0 1 .35-.35h3.186a.35.35 0 0 1 .35.347 4.58 4.58 0 0 0 4.57 4.539.352.352 0 0 1 .374.349v3.172a.35.35 0 0 1-.35.35h-.003a8.404 8.404 0 0 1-4.586-1.352l.015 6.443a6.312 6.312 0 0 1-1.893 4.494 6.424 6.424 0 0 1-3.597 1.799 6.715 6.715 0 0 1-.97.071z" />
      <path fill="#519484" style="fill:var(--color1, #519484)" d="M27.661 31.754H4.338a4.097 4.097 0 0 1-4.093-4.093V4.338A4.097 4.097 0 0 1 4.338.245h23.323a4.097 4.097 0 0 1 4.093 4.093v23.323a4.097 4.097 0 0 1-4.093 4.093zM4.338.946A3.397 3.397 0 0 0 .945 4.339v23.323a3.397 3.397 0 0 0 3.393 3.393h23.323a3.397 3.397 0 0 0 3.393-3.393V4.339A3.397 3.397 0 0 0 27.661.946H4.338z" />
    </symbol>
    <symbol id="icon-facebook" viewBox="0 0 17 32">
      <path fill="#519484" style="fill:var(--color1, #519484)" d="M11.163 30.684V16.876h4.472l.73-6.137h-5.202V7.75c0-1.58.043-3.148 2.398-3.148h2.386V.214c0-.066-2.049-.215-4.122-.215-4.33 0-7.041 2.542-7.041 7.211v3.529H0v6.137h4.784v13.808h6.379z" />
    </symbol>
    <symbol id="icon-youtube" viewBox="0 0 31 32">
      <path fill="#519484" style="fill:var(--color1, #519484)" d="M6.667.208H24a6.667 6.667 0 0 1 6.667 6.667v17.333A6.667 6.667 0 0 1 24 30.875H6.667A6.667 6.667 0 0 1 0 24.208V6.875A6.667 6.667 0 0 1 6.667.208z" />
      <path fill="#fafafa" style="fill:var(--color3, #fafafa)" d="M9.333 22.539V6.875l13.725 7.832-13.725 7.832z" />
    </symbol>
    <symbol id="icon-instagram" viewBox="0 0 33 32">
      <path fill="#519484" style="fill:var(--color1, #519484)" d="M23.698 0H9.033C4.053 0 .001 3.854.001 8.59v13.947c0 4.737 4.052 8.59 9.032 8.59h14.665c4.981 0 9.033-3.853 9.033-8.59V8.59c0-4.736-4.052-8.59-9.033-8.59zm6.128 22.537c0 3.214-2.749 5.828-6.129 5.828H9.031c-3.379 0-6.128-2.614-6.128-5.828V8.59c0-3.214 2.749-5.828 6.128-5.828h14.665c3.379 0 6.129 2.615 6.129 5.828v13.947z" />
      <path fill="#519484" style="fill:var(--color1, #519484)" d="M16.365 7.544c-4.65 0-8.434 3.598-8.434 8.02s3.783 8.02 8.434 8.02 8.434-3.597 8.434-8.02c0-4.422-3.783-8.02-8.434-8.02zm0 13.278c-3.049 0-5.53-2.359-5.53-5.258s2.481-5.258 5.53-5.258c3.049 0 5.53 2.359 5.53 5.258s-2.481 5.258-5.53 5.258zM25.152 5.201c-.559 0-1.109.215-1.504.593a1.988 1.988 0 0 0-.625 1.433c0 .532.229 1.055.625 1.433a2.202 2.202 0 0 0 3.01 0 1.99 1.99 0 0 0 .623-1.433 1.99 1.99 0 0 0-.623-1.433 2.194 2.194 0 0 0-1.506-.593z" />
    </symbol>
    <symbol id="icon-eattime" viewBox="0 0 32 32">
      <path fill="#eaffe2" style="fill:var(--color4, #eaffe2)" d="M30.667 16.667C30.667 25.135 23.802 32 15.334 32S.001 25.135.001 16.667 6.866 1.334 15.334 1.334s15.333 6.865 15.333 15.333z" />
      <path fill="#519484" style="fill:var(--color1, #519484)" d="M16.667 30.667c2.786.002 5.52-.756 7.906-2.195a.51.51 0 1 0-.529-.875A14.312 14.312 0 1 1 11.737 1.896a.511.511 0 0 0-.352-.96C4.402 3.494.262 10.694 1.563 18.016s7.668 12.655 15.104 12.651zM21.597 1.896a14.318 14.318 0 0 1 7.24 20.973.513.513 0 0 0 .418.78.511.511 0 0 0 .45-.242A15.339 15.339 0 0 0 21.948.935a.511.511 0 0 0-.352.96z" />
      <path fill="#519484" style="fill:var(--color1, #519484)" d="M14.622 9.497v4.319a2.534 2.534 0 0 0 1.672 4.038l11.214 11.213a1.023 1.023 0 0 0 1.446 0c1.601-1.601.655-3.68-3.614-7.951l-2.169-2.169h-.004l-3.984-3.987a2.54 2.54 0 0 0-.473-1.145v-4.32a2.548 2.548 0 0 0 1.533-2.34V1.533a1.497 1.497 0 0 0-.53-1.154 1.514 1.514 0 0 0-2.026.02A1.503 1.503 0 0 0 16.648 0c-.373.008-.731.15-1.008.399A1.509 1.509 0 0 0 13.629.37a1.51 1.51 0 0 0-.541 1.164v5.622a2.55 2.55 0 0 0 1.533 2.341zm6.021 11.254-3.047-3.046a2.555 2.555 0 0 0 1.444-1.444l3.044 3.049-1.441 1.441zm-2.954-7.756a2.518 2.518 0 0 0-2.044 0V9.712h2.044v3.283zm-2.556 2.338a1.533 1.533 0 1 1 3.065 0 1.533 1.533 0 0 1-3.065 0zm13.099 13.011-6.866-6.867 1.445-1.445 1.807 1.807c5.06 5.06 4.155 5.966 3.614 6.505zM14.111 1.533a.507.507 0 0 1 .186-.389.503.503 0 0 1 .69.035.494.494 0 0 1 .147.355v4.089a.511.511 0 0 0 1.022 0V1.534a.52.52 0 0 1 .475-.511h.084a.516.516 0 0 1 .463.511v4.089a.511.511 0 0 0 1.022 0V1.534a.511.511 0 0 1 1.022 0v5.622a1.53 1.53 0 0 1-1.161 1.486 1.379 1.379 0 0 1-.373.048h-2.044a1.39 1.39 0 0 1-.385-.051 1.527 1.527 0 0 1-1.148-1.482V1.535z" />
      <path fill="#519484" style="fill:var(--color1, #519484)" d="M12.02 3.974a.51.51 0 0 0-.677-.252c-.351.16-.689.341-1.022.531-.015.007-.031.007-.045.015s-.026.026-.041.036a12.778 12.778 0 0 0-4.586 4.59.45.45 0 0 0-.047.051.384.384 0 0 0-.02.06 12.712 12.712 0 0 0 .01 12.689c.005.009.005.02.01.029s.018.023.027.035a12.863 12.863 0 0 0 4.626 4.621c.009.006.014.015.023.021a.407.407 0 0 0 .044.018 12.747 12.747 0 0 0 12.351.192.509.509 0 0 0 .036-.893.51.51 0 0 0-.519-.008 11.737 11.737 0 0 1-5.014 1.365v-1.006a.511.511 0 0 0-1.022 0v1.009a11.674 11.674 0 0 1-4.916-1.32l.503-.871a.513.513 0 0 0-.442-.77.509.509 0 0 0-.443.259l-.502.869a11.84 11.84 0 0 1-3.598-3.598l.869-.502a.511.511 0 1 0-.512-.885l-.869.503a11.676 11.676 0 0 1-1.322-4.915h1.009a.511.511 0 0 0 0-1.022H4.928a11.724 11.724 0 0 1 1.32-4.913l.865.5a.513.513 0 0 0 .77-.442.509.509 0 0 0-.259-.443l-.869-.502a11.763 11.763 0 0 1 3.597-3.599l.503.869a.511.511 0 1 0 .885-.512l-.5-.869c.174-.09.347-.182.526-.265a.51.51 0 0 0 .252-.674zM27.239 21.559a.512.512 0 0 0 .692-.207 12.705 12.705 0 0 0-.179-12.347.469.469 0 0 0-.02-.06.45.45 0 0 0-.047-.051 12.786 12.786 0 0 0-4.589-4.59c-.015-.011-.025-.027-.041-.036a.396.396 0 0 0-.045-.015c-.331-.19-.669-.371-1.022-.531a.511.511 0 0 0-.423.93c.179.082.352.174.526.265l-.5.869a.513.513 0 0 0 .442.77.51.51 0 0 0 .443-.258l.503-.869a11.774 11.774 0 0 1 3.597 3.599l-.869.502a.51.51 0 1 0 .511.885l.865-.5a11.71 11.71 0 0 1 1.32 4.909H27.4a.511.511 0 0 0 0 1.022h1.006a11.647 11.647 0 0 1-1.374 5.022.512.512 0 0 0 .207.692z" />
    </symbol>
    <symbol id="icon-plate" viewBox="0 0 33 32">
      <path fill="#eaffe2" style="fill:var(--color4, #eaffe2)" d="M32 16c0 8.837-7.163 16-16 16S0 24.837 0 16 7.163 0 16 0s16 7.163 16 16z" />
      <path fill="#519484" style="fill:var(--color1, #519484)" d="M16.386 7.782c.272-.56.501-1.041.739-1.522.19-.382.363-.775.587-1.138.356-.58.94-.806 1.577-.96.5-.121 1.013-.256 1.465-.488 1.044-.536 1.971-.389 2.74.506.181.213.387.41.588.606.144.139.272.136.438-.012.396-.362.881-.52 1.405-.627a4.83 4.83 0 0 0 1.306-.442c1.104-.591 2.026-.426 2.846.523.275.328.605.605.976.819.833.452 1.376 1.109 1.41 2.049.047 1.056.173 2.107.377 3.144.173.918-.181 1.71-.647 2.491a22.716 22.716 0 0 0-1.341 2.611c-.181.418-.13.929-.19 1.399-.266 2.09-.491 4.187-.81 6.269-.463 3.018-2.768 5.369-5.778 5.974-.265.052-.363.148-.356.416.016.417.008.834 0 1.251-.006.452-.197.65-.641.65-3.924.004-7.847.004-11.771 0-.454 0-.645-.196-.652-.638s-.01-.858 0-1.286c.005-.228-.063-.335-.309-.386-3.24-.672-5.485-3.119-5.898-6.402-.281-2.247-.567-4.495-.856-6.742-.067-.524.064-.682.808-.855-.206-.484-.336-1.001-.62-1.413-.95-1.381-.934-2.703 0-4.087.299-.444.454-1.006.587-1.537.322-1.258 1.077-2.067 2.349-2.361a6.389 6.389 0 0 0 1.996-.825c1.128-.712 2.273-.687 3.391.03a5.89 5.89 0 0 0 1.871.777c1.094.256 1.929.828 2.278 1.953.039.087.083.172.133.254zM4.771 16.175c.006.117.006.181.015.249.255 2.034.529 4.068.761 6.104a6.248 6.248 0 0 0 6.17 5.527c3.651.01 7.301.01 10.952 0 2.994-.007 5.592-2.148 6.09-5.091.295-1.743.463-3.507.686-5.262.064-.499.122-.994.186-1.527H4.771zm9.142-3.782c.454-.386.848-.814 1.33-1.107.368-.222.446-.418.38-.82-.124-.747-.06-1.508-.29-2.26-.261-.854-.739-1.4-1.621-1.579a6.147 6.147 0 0 1-2.178-.904c-.773-.509-1.553-.502-2.32.013a5.961 5.961 0 0 1-2.152.894c-.895.181-1.437.718-1.62 1.609a5.922 5.922 0 0 1-.896 2.139c-.524.777-.479 1.537-.012 2.345.341.589.564 1.245.849 1.868.082.154.173.304.272.447.034-.164.099-.328.099-.492.001-1.891 1.242-3.595 3.026-4.142 1.878-.577 3.845.102 4.938 1.706.074.108.15.217.194.283zm15.698-3.744c.159.226.284.427.433.607.173.212.124.339-.091.484-.623.411-1.236.84-1.849 1.266-.26.181-.44.784-.272 1.026.564.814.845 1.79.8 2.779a.298.298 0 0 0 .164.235c.602.162.946.005 1.25-.547.065-.118.112-.247.174-.366.356-.677.68-1.373 1.081-2.022.387-.627.595-1.28.424-1.989a11.171 11.171 0 0 1-.322-2.676c0-.551-.176-1.054-.714-1.331a5.197 5.197 0 0 1-1.505-1.204c-.521-.584-.726-.575-1.452-.222-.454.221-.939.437-1.43.495-.826.098-1.248.553-1.558 1.26s-.691 1.363-1.063 2.031c-.243.437-.497.862-.499 1.381 0 .412.041.447.448.385a4.232 4.232 0 0 1 2.844.552c.081.046.164.09.246.131a31.561 31.561 0 0 0-1.356-2.042c-.126-.181-.159-.296.058-.434.817-.519.57-.564 1.12.203.119.165.238.331.344.504.041.082.072.167.093.256l.137-.112c.115-.608.234-1.216.343-1.825.133-.748.128-.74.886-.573.246.054.31.165.263.401-.124.619-.235 1.24-.348 1.861-.021.114-.025.23-.047.437.51-.349.944-.641 1.397-.95zM20.52 9.1l.091-.016c.099-.528.2-1.057.296-1.586.154-.849.023-.723.891-.596.247.036.312.146.262.392-.15.739-.278 1.484-.413 2.227-.102.558-.201 1.116-.317 1.764.272-.189.481-.305.65-.463a.485.485 0 0 0 .155-.361c-.181-1.029.173-1.899.726-2.735.328-.495.573-1.045.832-1.582a.37.37 0 0 0-.073-.333c-.308-.313-.652-.589-.96-.904-.544-.557-.755-.571-1.457-.228-.454.221-.937.444-1.427.501-.842.099-1.262.57-1.576 1.287a20.39 20.39 0 0 1-1.068 2.027c-.338.583-.575 1.164-.436 1.86.059.296.173.387.469.382a3.668 3.668 0 0 1 2.497.904l.389.329c.225-.713.358-1.346-.216-1.969-.437-.475-.753-1.06-1.139-1.621.235-.165.443-.299.635-.452s.313-.105.439.09c.244.367.502.722.752 1.081l-.003.002zm-3.33 21.12h4.9c.544 0 .544 0 .544-.524 0-.557 0-.557-.544-.557h-9.695c-.721 0-.622-.09-.654.658-.015.362.121.431.454.429 1.662-.014 3.329-.005 4.996-.005zm.534-15.311.037.114c.104.018.209.03.315.036.465 0 .931-.019 1.394.008.347.021.436-.146.439-.438.009-.971-.358-1.767-1.164-2.317-.907-.622-1.886-.683-2.859-.152-.947.516-1.402 1.347-1.411 2.415 0 .438.055.485.485.486s.884 0 1.326 0c.114-.007.228-.02.34-.04l.032-.117a5.783 5.783 0 0 1-.554-.322c-.079-.057-.175-.205-.151-.271.104-.271.25-.522.377-.772.387.11 1.28.111 1.724.006.108.212.21.437.334.648s.059.323-.15.417a5.602 5.602 0 0 0-.514.3zm-5.454.106a.515.515 0 0 0 .115.037c.17.005.339.009.509.008.442 0 .472-.032.48-.484a3.26 3.26 0 0 0-2.609-3.25 3.279 3.279 0 0 0-1.497.043c-1.478.391-2.523 1.813-2.411 3.314.009.125.1.337.174.347.308.025.616.031.925.016-.035-1.694.76-2.679 2.124-2.691 1.402-.013 2.2.947 2.19 2.66zm9.84.041c-.022-1.627.693-2.615 1.906-2.712.59-.046 1.132.07 1.596.442.718.576.93 1.349.791 2.273h.65c.433 0 .466-.034.478-.452.063-2.141-1.965-3.759-4.055-3.237a3.253 3.253 0 0 0-2.467 3.275c.008.17-.027.394.241.407s.557.005.86.005zm-12.03.004c.227 0 .454-.014.679.005.282.024.381-.128.424-.368a1.078 1.078 0 0 0-.483-1.079 1.043 1.043 0 0 0-1.156-.014 1.088 1.088 0 0 0-.509 1.066c.039.271.16.429.469.395.192-.012.384-.013.576-.005zm14.155 0c.227 0 .454-.014.679.005.282.024.382-.127.425-.367a1.079 1.079 0 0 0-.482-1.085 1.048 1.048 0 0 0-1.156-.016 1.074 1.074 0 0 0-.51 1.067c.039.271.158.43.468.396.192-.01.384-.01.575 0h.001z" />
      <path fill="#519484" style="fill:var(--color1, #519484)" d="M3.322 7.617c-.281-.077-.553-.149-.822-.227-.243-.071-.147-.24-.103-.385C2.869 5.468 3.839 4.37 5.35 3.77c.306-.121.63-.187.941-.303.41-.155.84-.287 1.211-.511 1.929-1.165 3.835-1.153 5.775-.004.505.299 1.103.447 1.664.652 1.033.378.9.181.448 1.164a.775.775 0 0 1-.1.121c-.907-.379-1.88-.521-2.738-1.063-1.452-.92-2.949-.841-4.433.027a6.543 6.543 0 0 1-1.584.665c-1.551.417-2.658 1.275-3.103 2.859a1.987 1.987 0 0 1-.109.24zM1.391 9.372l.59-1.07c.293.162.554.292.796.452.054.035.064.165.061.249 0 .06-.061.117-.091.181-.448.769-.547.783-1.356.189zM28.113 19.682c-.153 1.121-.257 2.143-.438 3.152-.368 2.04-1.959 3.616-4.006 4.033-.382.078-.436.04-.483-.339-.075-.623-.075-.623.534-.788.764-.21 1.449-.639 1.97-1.234s.855-1.329.961-2.111c.118-.904.236-1.808.339-2.717.031-.271.132-.389.415-.315.122.026.246.04.371.042.244.017.4.099.338.278zM22.09 26.451c0 .523 0 .523-.574.522-.517 0-.517 0-.516-.579 0-.506 0-.506.591-.505.5.001.5.001.5.562z" />
    </symbol>
    <symbol id="icon-menu" viewBox="0 0 29 32">
      <path fill="#eaffe2" style="fill:var(--color4, #eaffe2)" d="M29.44 16c0 8.13-6.59 14.72-14.72 14.72S0 24.13 0 16 6.59 1.28 14.72 1.28 29.44 7.87 29.44 16z" />
      <path fill="#519484" style="fill:var(--color1, #519484)" d="M5.395 15.97V2.361C5.395.865 6.285 0 7.823 0h13.792c1.539 0 2.427.864 2.427 2.362 0 9.094-.002 18.189-.006 27.283 0 1.479-.893 2.353-2.405 2.354H7.805c-1.51 0-2.404-.877-2.404-2.354V15.969h-.007zm17.574.033h-.006V2.295c0-.835-.425-1.248-1.289-1.248H7.781c-.893 0-1.306.398-1.306 1.26 0 9.127-.002 18.254-.006 27.381 0 .862.416 1.272 1.294 1.272h13.894c.905 0 1.313-.4 1.313-1.287V16.002h-.001zM26.234 22.978c0 1.99-.007 3.979.006 5.97 0 .308-.092.403-.406.391-.78-.029-.665.089-.665-.664-.004-3.879-.004-7.757 0-11.636 0-.485 0-.487.502-.485.633 0 .563-.063.564.557.001 1.955.001 3.91-.002 5.866z" />
      <path fill="#519484" style="fill:var(--color1, #519484)" d="M14.682 17.056H9.469c-.6 0-.774-.17-.775-.756s-.005-1.177 0-1.766c0-.454.205-.648.676-.648h10.701c.466 0 .666.199.67.654.006.611.005 1.222 0 1.833 0 .495-.198.682-.712.683h-5.348zm0-1.038c1.44 0 2.878.004 4.318 0 .769 0 .669.097.676-.651.005-.446 0-.446-.444-.446h-8.739c-.839 0-.701-.12-.732.7-.014.338.121.404.436.401 1.492-.012 2.988-.004 4.484-.004h.001zM14.724 11.72c-1.876 0-3.75-.007-5.628.006-.316 0-.415-.089-.403-.394.03-.764-.091-.652.679-.645.322 0 .464-.065.542-.409.469-2.06 1.792-3.318 3.911-3.773.286-.061.366-.161.366-.434-.012-.766 0-.761.789-.735.201.006.286.062.284.267-.005.267-.074.604.063.772s.5.15.758.231c1.869.583 3.03 1.805 3.449 3.67.07.307.171.423.507.412.714-.025.702-.005.712.677 0 .276-.084.356-.366.356-1.893-.006-3.781-.001-5.663-.001zm3.813-1.07c-.226-1.209-.83-2.122-1.9-2.698-1.42-.766-2.835-.688-4.164.211-.876.593-1.387 1.426-1.555 2.487h7.619zM15.816 19.221c1.521 0 3.041.006 4.562-.005.282 0 .38.077.37.356-.028.813.104.683-.712.684-2.904.006-5.808 0-8.712.01-.344 0-.457-.083-.442-.426.035-.713-.081-.616.646-.617 1.429-.005 2.858-.002 4.287-.002zM15.833 21.356c1.509 0 3.018.007 4.527-.006.297 0 .402.074.39.373-.032.787.101.667-.694.668-2.892.005-5.784.005-8.677 0-.487 0-.489 0-.487-.468.005-.644-.072-.568.585-.569 1.451-.001 2.904.002 4.355.002zM15.853 23.491c1.509 0 3.018.006 4.527-.005.284 0 .378.082.366.356-.028.808.104.68-.714.682-2.904.005-5.807 0-8.711.01-.348 0-.457-.089-.439-.428.034-.713-.081-.614.648-.616 1.443-.003 2.884.001 4.323.001zM15.854 25.626c1.509 0 3.018.006 4.526-.005.285 0 .378.083.366.356-.027.807.105.68-.714.681-2.904.006-5.807 0-8.711.011-.348 0-.457-.089-.438-.43.034-.708-.083-.612.648-.615 1.442-.002 2.883.002 4.322.002zM13.594 3.185c-.584-.008-.509.061-.509-.569 0-.554-.059-.478.599-.478.549 0 .475-.053.476.566.001.547.054.474-.565.481zM15.835 2.139c.584.007.52-.058.52.526s.073.52-.59.521c-.563 0-.48.058-.486-.591-.006-.456-.001-.456.556-.456zM9.763 19.724c-.006.593.061.535-.549.535-.588 0-.51.048-.515-.569 0-.469 0-.469.586-.468.477-.001.477-.001.477.502zM9.272 21.356c.559 0 .488-.036.49.561 0 .543.039.474-.576.475-.569 0-.485.041-.49-.593-.004-.445 0-.445.576-.444zM8.696 23.984c0-.493 0-.493.56-.493.508 0 .509 0 .507.544 0 .562.048.488-.595.493-.472.003-.472 0-.472-.544zM9.256 25.626c.508 0 .509 0 .507.544 0 .563.046.488-.595.492-.473 0-.473 0-.472-.577.001-.46.001-.46.56-.459zM14.186 29.332c0-.503 0-.503.549-.503.518 0 .52 0 .517.535 0 .569.05.499-.583.503-.483.002-.483-.001-.483-.534z" />
    </symbol>
    <symbol id="icon-banana" viewBox="0 0 42 32">
      <path fill="#e0b6a8" style="fill:var(--color5, #e0b6a8)" d="M3.841 22.843c.389.593.823 1.115 1.43 1.732.565.57 1.162 1.108 1.788 1.61a25.098 25.098 0 0 0 4.001 2.668c3.44 1.844 7.327 2.885 11.237 2.862 6.591-.038 13.161-3.177 17.095-8.466 2.155-2.9 3.523-6.75 2.28-10.143-.481-1.314-1.322-2.471-1.816-3.78a7.806 7.806 0 0 1-.427-3.694c.074-.601.178-1.151.206-1.756.031-.694.102-1.386.214-2.072.056-.345.194-.762.54-.815.362-.055.632.376.603.742-.048.59-.571 1.039-1.123 1.253s-1.155.258-1.72.432c-1.188.366-1.691 1.29-1.773 2.45-.278 3.924-1.932 7.737-4.609 10.619s-6.357 4.813-10.249 5.379c-2.624.381-5.32-.004-7.86-.697-2.014-.55-4.539-1.29-7.869-.974-.988.094-2.444.325-2.643 1.064-.1.37.166.775.697 1.585z" />
      <path fill="#4a5b51" style="fill:var(--color6, #4a5b51)" d="M1.564 19.819a.825.825 0 0 0 .518.824.82.82 0 0 0 .339.059c.44-.018.78-.4.843-.818.142-.923-.79-1.581-1.636-1.299-.929.31-1.236 1.418-.859 2.261.181.404.494.73.807 1.035.358.349.694.717 1.045 1.074 3.057 3.112 6.938 5.425 11.146 6.581a22.393 22.393 0 0 0 11.767.05c3.649-.985 7.067-2.895 9.738-5.581s4.899-6.477 4.357-10.399c-.142-1.035-.52-1.989-.965-2.928-.472-.996-.97-1.978-1.183-3.069-.224-1.144-.118-2.257.095-3.392.106-.565.161-1.132.232-1.701.067-.538.129-1.112.293-1.63.045-.142.13-.376.302-.401.16-.024.26.159.296.287.117.415-.249.808-.569 1.008-.854.531-1.956.333-2.838.818-.694.382-1.123 1.073-1.295 1.833-.1.442-.129.9-.206 1.347-.086.498-.194.991-.324 1.48-1.013 3.817-3.339 7.257-6.555 9.56-3.368 2.411-7.562 3.598-11.689 3.117a21.664 21.664 0 0 1-3.381-.693c-1.094-.309-2.166-.676-3.275-.934a28.346 28.346 0 0 0-3.326-.567c-1.014-.112-2.074-.222-3.094-.13-.813.073-1.633.326-2.106 1.038-.173.261.246.504.419.245.458-.689 1.383-.808 2.144-.821 1.067-.02 2.147.082 3.203.222 1.11.148 2.21.363 3.293.644 1.077.278 2.125.653 3.201.931 2.128.548 4.345.821 6.537.569A17.69 17.69 0 0 0 34.329 5.451c.113-.779.192-1.574.801-2.144.72-.676 1.757-.566 2.641-.84.738-.228 1.6-.897 1.407-1.774-.081-.37-.385-.717-.79-.693-.433.026-.666.438-.772.81-.304 1.064-.305 2.196-.509 3.279-.207 1.098-.32 2.166-.158 3.279.157 1.075.579 2.059 1.045 3.032.443.925.884 1.846 1.087 2.858.374 1.869-.007 3.823-.76 5.549-1.501 3.444-4.388 6.222-7.597 8.094a21.905 21.905 0 0 1-10.559 2.971c-4.126.08-8.228-1.067-11.803-3.105a24.72 24.72 0 0 1-5.186-3.941c-.363-.36-.7-.747-1.067-1.103-.305-.298-.636-.589-.845-.967s-.245-.85-.038-1.237c.194-.363.602-.592 1.015-.501a.714.714 0 0 1 .542.812c-.036.178-.171.364-.363.386-.242.028-.386-.178-.372-.399.019-.312-.466-.311-.485 0l.001.001z" />
      <path fill="#4a5b51" style="fill:var(--color6, #4a5b51)" d="M17.088 25.137A17.48 17.48 0 0 0 35.52 16.63c.155-.271-.264-.516-.419-.244a17.144 17.144 0 0 1-5.23 5.654 17.02 17.02 0 0 1-12.655 2.631c-.305-.057-.435.41-.129.467z" />
    </symbol>
    <symbol id="icon-bottle" viewBox="0 0 32 32">
      <path fill="#bacea3" style="fill:var(--color7, #bacea3)" d="M16.098.48C24.583.41 31.917 7.488 31.81 16.426c-.111 8.46-7.158 15.616-15.901 15.482-4.344-.064-8.078-1.655-11.095-4.773-3.096-3.2-4.565-7.067-4.437-11.534C.606 7.375 7.553.398 16.098.48zm4.024 10.602-.03-.055c1.403-1.395 4.107-4.03 5.517-5.424C20.104.602 11.05.489 5.474 6.689c-5.303 5.892-4.432 14.284.029 19.04 1.271-1.23 4.494-4.537 5.833-5.74l.025.105c.086.477 0 .954.07 1.428.003.035-.001.07-.011.103s-.028.064-.051.09c-.334.346-2.509 2.7-2.857 3.035-.67.662-1.339 1.321-2.018 1.987 5.415 4.915 14.105 5.135 19.715-.577 5.642-5.74 5.178-14.332.411-19.549-.032.05-.067.098-.105.143-1.127 1.127-4.59 4.576-5.714 5.703a.213.213 0 0 1-.25.068z" />
      <path fill="#bacea3" style="fill:var(--color7, #bacea3)" d="M13.786 4.129h4.535c.637.789.58 1.627.277 2.403-.368.934-.264 1.775.179 2.619.307.587.703 1.143.912 1.761.287.848.602 1.741.618 2.621.068 3.648.036 7.299.027 10.949 0 1.607-.473 2.085-2.052 2.096-1.495.009-2.988.009-4.48 0-1.443-.013-1.953-.502-1.964-1.937-.014-3.733-.046-7.467.025-11.197.018-.877.357-1.764.655-2.612.2-.579.566-1.1.857-1.65.446-.841.579-1.684.2-2.614a2.538 2.538 0 0 1 .211-2.438zm-.922 11.349c1.057.555 1.911.264 2.719-.343.948-.714 1.955-1.239 3.196-1.121.169-.006.336-.032.498-.079a3.902 3.902 0 0 0-.452-2.766c-.686-1.25-1.507-2.468-1.345-4.024-1-.141-1.88-.218-2.816.059.12 1.219-.28 2.257-.912 3.187-1.05 1.552-1.075 3.248-.889 5.087zm4.509.178.104.339a4.38 4.38 0 0 0 .505-.2.932.932 0 0 0-.096-.282 3.924 3.924 0 0 0-.512.143z" />
      <path fill="#4a5b51" style="fill:var(--color6, #4a5b51)" d="m15.729.111-.003.325h.006l-.003-.325zm15.712 15.946.325.004-.325-.004zM15.54 31.539l.005-.325-.005.325zM4.445 26.766zM.008 15.232l.325.009-.325-.009zm19.715-4.575-.229-.231-.174.173.118.215.285-.156zm5.517-5.424.229.231.244-.241-.254-.231-.219.241zM5.105 6.319zm.029 19.04-.237.223.226.241.238-.23-.226-.234zm5.833-5.74.316-.077-.129-.529-.405.364.218.242zm.025.105.32-.058v-.001l-.32.058zm.07 1.429.324-.031-.001-.008-.001-.008-.322.047zm-.063.192.234.226.005-.005.005-.006-.244-.215zm-2.857 3.036-.226-.234-.003.003.229.231zm-2.017 1.987-.228-.232-.246.242.255.232.219-.241zm19.715-.577zm.411-19.549.24-.22-.288-.315-.228.361.275.174zm-.106.143.23.23.009-.009.008-.01-.247-.212zm-5.713 5.703-.23-.23-.015.015-.013.016.258.199zM15.732.436c8.304-.068 15.489 6.862 15.384 15.617l.651.008c.109-9.122-7.375-16.347-16.04-16.275l.005.651zm15.384 15.616c-.108 8.284-7.012 15.292-15.571 15.161l-.01.651c8.928.137 16.119-7.168 16.232-15.803l-.651-.009zM15.544 31.213c-4.259-.063-7.91-1.619-10.866-4.674l-.468.453c3.079 3.181 6.895 4.806 11.324 4.872l.01-.651zM4.679 26.54C1.645 23.405.207 19.623.333 15.241l-.651-.019c-.131 4.553 1.37 8.506 4.528 11.77l.468-.453zM.333 15.241C.557 7.189 7.361.356 15.726.436l.006-.651C7.006-.299-.084 6.823-.318 15.223l.651.018zm19.706-4.685-.03-.055-.571.313.03.055.571-.313zm-.087.332c1.405-1.396 4.101-4.024 5.517-5.424l-.458-.463c-1.405 1.389-4.116 4.032-5.518 5.425l.459.462zm5.507-5.896C19.829-.123 10.567-.24 4.863 6.101l.484.435C10.795.479 19.642.587 25.021 5.474l.438-.482zM4.863 6.101c-5.425 6.027-4.534 14.611.033 19.481l.475-.445c-4.354-4.643-5.205-12.843-.024-18.6l-.484-.435zm.497 19.492c1.289-1.247 4.489-4.532 5.824-5.732l-.435-.484c-1.343 1.207-4.588 4.536-5.842 5.748l.453.468zm5.291-5.897.01.042.007.027.004.017.64-.116-.012-.054-.007-.03-.01-.041-.632.154zm.021.086c.037.205.038.414.036.655-.002.231-.007.496.032.764l.644-.094c-.03-.208-.027-.419-.025-.664a4.122 4.122 0 0 0-.046-.775l-.641.115zm.066 1.401a.065.065 0 0 1 .003-.028l.619.201a.597.597 0 0 0 .026-.234l-.648.062zm.003-.028a.077.077 0 0 1 .014-.025l.489.43a.571.571 0 0 0 .116-.205l-.619-.201zm.024-.036c-.351.364-2.504 2.695-2.848 3.027l.452.469c.352-.339 2.549-2.715 2.865-3.044l-.469-.452zm-2.851 3.03c-.669.662-1.338 1.321-2.017 1.986l.456.465c.679-.666 1.349-1.325 2.019-1.988l-.458-.463zm-2.008 2.46c5.538 5.026 14.427 5.254 20.166-.59l-.464-.456c-5.481 5.58-13.971 5.368-19.264.564l-.437.482zm20.166-.59c5.772-5.872 5.294-14.661.419-19.997l-.48.439c4.659 5.098 5.11 13.493-.402 19.102l.464.456zm-.096-19.951a.885.885 0 0 1-.077.105l.495.423c.049-.057.093-.117.133-.181l-.55-.348zm-.061.087c-1.125 1.125-4.591 4.577-5.714 5.703l.461.46c1.123-1.127 4.585-4.574 5.713-5.702l-.46-.46zm-5.741 5.734a.108.108 0 0 1 .059-.039l.17.628a.54.54 0 0 0 .286-.191l-.515-.397zm.059-.039a.115.115 0 0 1 .071.004l-.244.603a.54.54 0 0 0 .344.02l-.17-.628z" />
      <path fill="none" stroke="#4a5b51" style="stroke:var(--color6, #4a5b51)" stroke-width=".325" d="M19.165 10.595a5.157 5.157 0 0 0-.407-.864 19.843 19.843 0 0 0-.171-.296 13.73 13.73 0 0 1-.325-.578c-.462-.88-.573-1.771-.186-2.754.283-.723.334-1.471-.205-2.181h-4.367a2.375 2.375 0 0 0-.151 2.211l.002.004c.401.984.257 1.878-.207 2.751-.093.175-.195.352-.296.524-.058.099-.115.198-.169.294a5.024 5.024 0 0 0-.382.809v.001l-.069.197c-.28.793-.561 1.585-.577 2.365-.061 3.179-.046 6.361-.032 9.545l.007 1.647c.005.706.135 1.131.396 1.387s.695.382 1.406.388l-.001.163c1.491.009 2.985.009 4.48 0l1.253-15.614zm0 0 .03.088c.281.827.564 1.663.579 2.484.055 2.959.044 5.919.033 8.881l-.007 2.064c0 .799-.12 1.26-.387 1.533s-.719.395-1.502.401l1.254-15.451zm-6.832 4.53.009.087.077.041c.557.293 1.071.367 1.557.281.481-.085.921-.326 1.336-.637.936-.705 1.902-1.201 3.083-1.089l.011.001h.011a2.22 2.22 0 0 0 .537-.085l.095-.027.02-.096a4.066 4.066 0 0 0-.469-2.879c-.08-.146-.161-.29-.242-.434-.622-1.108-1.22-2.171-1.082-3.493l.016-.156-.155-.022c-1.003-.141-1.913-.223-2.885.064l-.129.038.013.134c.115 1.171-.267 2.17-.885 3.08-1.084 1.601-1.103 3.347-.916 5.194zm4.617.009-.147.052.046.149.152.498.158-.051c.179-.058.354-.128.524-.207l.112-.053-.021-.122a1.115 1.115 0 0 0-.113-.332l-.057-.107-.119.025a4.089 4.089 0 0 0-.533.149z" />
    </symbol>
    <symbol id="icon-plant" viewBox="0 0 32 32">
      <path fill="#bacea3" style="fill:var(--color7, #bacea3)" d="M16.287.37C24.77.3 32.106 7.378 31.999 16.316c-.118 8.46-7.167 15.616-15.916 15.478-4.342-.064-8.076-1.655-11.093-4.773C1.898 23.825.428 19.958.549 15.49.794 7.264 7.736.287 16.286.369zM6.69 26.634c5.414 4.915 14.105 5.135 19.715-.577 5.642-5.74 5.178-14.332.409-19.549-.032.05-.067.098-.105.143a1196.583 1196.583 0 0 0-3.38 3.378.213.213 0 0 1-.25.068 18.864 18.864 0 0 0-.975-.257c-.161-.041-.323-.071-.486-.105l-.03-.055 4.21-4.187C20.292.492 11.239.379 5.661 6.579c-5.301 5.892-4.432 14.284.029 19.04 1.271-1.23 2.482-2.523 3.821-3.726l.025.104c.084.478.178.955.248 1.428.003.035-.001.07-.011.103s-.028.064-.051.09c-.333.345-.672.687-1.016 1.025-.668.668-1.339 1.327-2.016 1.993z" />
      <path fill="none" stroke="#4a5b51" style="stroke:var(--color6, #4a5b51)" stroke-width=".325" d="M15.916.163h.003c8.392-.069 15.654 6.935 15.548 15.781-.117 8.372-7.094 15.454-15.751 15.318-4.3-.064-7.992-1.637-10.979-4.723C1.676 23.375.222 19.551.342 15.126.584 6.987 7.455.082 15.915.163zm-9.71 25.986-.123.121.127.116c5.475 4.971 14.266 5.194 19.941-.583 5.707-5.806 5.236-14.497.413-19.773l-.144-.157-.114.18a1.038 1.038 0 0 1-.087.119c-1.131 1.126-2.256 2.25-3.376 3.374l-.007.007-.006.008c-.007.009-.017.015-.027.018s-.022.002-.033-.002l-.007-.003-.008-.002c-.325-.096-.654-.18-.982-.259-.088-.023-.178-.042-.266-.061l4.157-4.135-.127-.115C19.968-.056 10.812-.171 5.17 6.099c-5.362 5.96-4.483 14.447.031 19.26l.113.121.119-.115c.464-.449.917-.903 1.37-1.357.731-.733 1.461-1.465 2.235-2.173l.049.27c.059.325.118.646.165.967.001.012-.001.023-.004.034s-.009.021-.017.03c-.331.343-.668.682-1.01 1.018l-.001.001c-.58.58-1.163 1.153-1.75 1.731l-.265.261z" />
      <path fill="#bacea3" style="fill:var(--color7, #bacea3)" d="M15.921 4.06c.828.78 1.48 1.669 1.735 2.791.398 1.757.052 3.346-1.132 4.728-.145.179-.311.325-.462.489-.109.118-.205.113-.321 0a5.833 5.833 0 0 1-1.402-2.025 5.262 5.262 0 0 1-.295-2.644c.164-1.359.843-2.439 1.852-3.332.002-.004.011-.004.025-.007zM16.094 15.55a7.464 7.464 0 0 1 .418-2.4c.618-1.619 1.816-2.5 3.516-2.694a7.819 7.819 0 0 1 1.325.032c.236.014.298.1.295.357-.013 1.607-.628 2.907-1.916 3.88a8.31 8.31 0 0 1-3.087 1.378 3.326 3.326 0 0 1-.312.066c-.189.025-.239-.02-.253-.211a1.822 1.822 0 0 1 0-.209c-.002-.073.011-.136.016-.2zM20.599 20.924c.246.014.491.027.736.045s.307.089.314.334a5.171 5.171 0 0 1-.239 1.591c-.33 1.128-1.071 1.932-2.034 2.562s-2.01.968-3.108 1.214c-.123.027-.179-.012-.179-.141.014-.373.018-.746.048-1.119a5.878 5.878 0 0 1 .582-2.244c.744-1.428 1.964-2.128 3.546-2.227h.336l-.002-.014zM11.155 10.399c1.25.016 2.337.405 3.234 1.289.6.593.893 1.336 1.093 2.143.153.674.233 1.363.237 2.055 0 .262-.066.325-.316.268-1.291-.289-2.484-.755-3.517-1.58a4.429 4.429 0 0 1-1.685-3.021 7.176 7.176 0 0 1-.061-.732c0-.214.064-.293.271-.325.246-.039.496-.064.745-.096zM15.708 26.075v.48c0 .1-.054.136-.159.114a8.521 8.521 0 0 1-3.633-1.573c-1.041-.798-1.577-1.866-1.716-3.15-.027-.248-.021-.502-.034-.752a.186.186 0 0 1 .04-.132.177.177 0 0 1 .121-.064 4.56 4.56 0 0 1 2.623.241c1.371.536 2.175 1.575 2.5 2.984.139.605.2 1.23.296 1.844l-.038.007zM16.076 20.792c.013-.823.16-1.638.436-2.414.536-1.448 1.589-2.309 3.084-2.618a5.805 5.805 0 0 1 1.837-.016c.145.016.179.116.179.239a4.685 4.685 0 0 1-.43 2.237c-.37.803-.975 1.387-1.685 1.887-.961.675-2.039 1.05-3.173 1.3-.205.045-.234.021-.245-.179-.002-.15-.002-.295-.002-.437zM11.168 15.689a4.46 4.46 0 0 1 2.882.925c.657.5 1.02 1.193 1.278 1.952.275.837.407 1.714.391 2.594 0 .266 0 .275-.271.223-1.56-.309-2.969-.925-4.098-2.082a4.164 4.164 0 0 1-1.109-2.298c-.049-.3-.08-.603-.095-.907-.013-.27.091-.368.357-.387.139-.013.278-.02.416-.025.077.002.157.005.248.005z" />
      <path fill="none" stroke="#4a5b51" style="stroke:var(--color6, #4a5b51)" stroke-width=".325" d="M16.027 11.013c1.148-1.34 1.484-2.876 1.097-4.586-.235-1.034-.822-1.869-1.588-2.613-.933.855-1.55 1.876-1.703 3.144l-.001.004a5.093 5.093 0 0 0 .285 2.561 5.648 5.648 0 0 0 1.362 1.966l.002.002a.175.175 0 0 0 .051.039l.496-.517zm0 0-.003.003c-.067.083-.14.159-.218.238l-.057.057c-.06.06-.122.122-.181.186l.458-.485zm-.501.52h.001-.001zM15.882 15.104l.001-.006v-.006a7.314 7.314 0 0 1 .408-2.345c.3-.784.736-1.382 1.298-1.808s1.255-.685 2.079-.78a7.65 7.65 0 0 1 1.293.032h.008c.051.003.082.01.101.016.016.006.019.01.02.011.005.007.023.039.022.165v.001c-.012 1.558-.606 2.809-1.85 3.75a8.135 8.135 0 0 1-3.025 1.35l-.007.002a2.695 2.695 0 0 1-.294.062.626.626 0 0 1-.059.005.47.47 0 0 1-.008-.065 2.007 2.007 0 0 1 0-.19v-.012a.546.546 0 0 1 .007-.101l.009-.081zM20.411 20.642v-.003c.181.01.359.02.538.033.118.009.137.029.139.03.003.003.021.026.024.144a4.99 4.99 0 0 1-.232 1.539l-.001.003c-.316 1.081-1.026 1.856-1.967 2.472-.933.611-1.953.943-3.034 1.187l.01-.297c.008-.265.016-.525.037-.787v-.004a5.682 5.682 0 0 1 .565-2.18c.715-1.369 1.877-2.041 3.406-2.137h.515zM15.065 15.535h-.001c-1.276-.286-2.443-.744-3.451-1.549l-.002-.001a4.277 4.277 0 0 1-1.624-2.911l-.001-.004a6.785 6.785 0 0 1-.059-.713c0-.096.016-.119.02-.124.003-.004.021-.023.113-.037h.001c.161-.026.322-.045.485-.064l.243-.03c1.209.018 2.25.394 3.11 1.242.568.562.852 1.27 1.049 2.064.151.662.229 1.339.233 2.018a.523.523 0 0 1-.01.122l-.001.002a.504.504 0 0 1-.107-.015zM15.172 25.481l.016-.003a38.216 38.216 0 0 1-.062-.437 14.15 14.15 0 0 0-.209-1.241c-.314-1.363-1.085-2.355-2.4-2.869l-.002-.001a4.385 4.385 0 0 0-2.529-.232l-.008.002-.009.001-.006.002-.005.004-.003.005-.001.006v.008c.005.099.007.192.009.284.004.156.007.305.024.459l5.184 4.011zm0 0v.135m0-.135v.135m0 0v.429m0-.429v.429m0-.001a8.35 8.35 0 0 1-3.531-1.537c-1.001-.768-1.517-1.793-1.652-3.037l5.184 4.574zM21.034 15.445l.006.001a.119.119 0 0 1 .024.005.094.094 0 0 1 .005.017.262.262 0 0 1 .004.055v.01a4.541 4.541 0 0 1-.415 2.16v.001c-.353.768-.933 1.331-1.631 1.822-.936.658-1.992 1.027-3.114 1.274a.594.594 0 0 1-.045.009.328.328 0 0 1-.002-.034c-.002-.147-.002-.289-.002-.431a7.414 7.414 0 0 1 .426-2.36c.515-1.391 1.52-2.215 2.961-2.513a5.643 5.643 0 0 1 1.783-.015zm-5.219 5.36h.001-.001zM10.794 15.392h.006a4.307 4.307 0 0 1 2.777.891l.001.001c.62.472.969 1.129 1.223 1.874.269.819.399 1.678.383 2.54v.081l-.077-.014c-1.537-.304-2.912-.908-4.011-2.035a4.005 4.005 0 0 1-1.065-2.207l-.001-.003a8.266 8.266 0 0 1-.093-.889c-.005-.119.018-.155.03-.168.015-.015.055-.041.177-.05h.003a7.71 7.71 0 0 1 .403-.024l.062.002c.056.002.119.004.185.004z" />
    </symbol>
    <symbol id="icon-phone" viewBox="0 0 35 32">
      <path fill="#e0b6a8" style="fill:var(--color5, #e0b6a8)" d="M27.207 19.679c-.682-.676-1.505-1.037-2.378-1.037-.865 0-1.695.355-2.406 1.03L20.2 21.78c-.183-.094-.366-.181-.542-.268a8.777 8.777 0 0 1-.696-.355c-2.083-1.258-3.975-2.897-5.79-5.018-.879-1.057-1.47-1.947-1.9-2.85.577-.502 1.112-1.024 1.632-1.525.197-.187.394-.381.591-.569 1.477-1.405 1.477-3.225 0-4.63l-1.921-1.827a26.134 26.134 0 0 1-.654-.636 31.54 31.54 0 0 0-1.323-1.244c-.682-.642-1.498-.984-2.357-.984s-1.688.341-2.392.984l-.014.013-2.392 2.295c-.901.856-1.414 1.9-1.527 3.111-.169 1.954.436 3.774.9 4.964 1.14 2.924 2.842 5.634 5.382 8.537a32.923 32.923 0 0 0 11.024 8.209c1.618.729 3.778 1.592 6.191 1.74.148.007.303.013.443.013 1.625 0 2.99-.555 4.059-1.659.007-.013.021-.02.028-.033.366-.422.788-.803 1.231-1.211.303-.274.612-.562.915-.863.697-.689 1.062-1.492 1.062-2.315 0-.83-.373-1.626-1.083-2.295l-3.862-3.687zm2.519 7.045c-.007 0-.007.007 0 0-.274.281-.556.535-.858.816-.457.415-.922.85-1.358 1.338-.711.723-1.548 1.064-2.645 1.064-.106 0-.218 0-.324-.007-2.089-.127-4.031-.903-5.487-1.566A31.074 31.074 0 0 1 8.67 20.635c-2.399-2.75-4.003-5.292-5.065-8.022-.654-1.666-.893-2.964-.788-4.188.07-.783.387-1.432.971-1.987l2.399-2.281c.345-.308.711-.475 1.069-.475.443 0 .802.254 1.027.468l.021.02c.429.381.837.776 1.266 1.198.218.214.443.428.668.649l1.921 1.827c.746.709.746 1.365 0 2.074-.204.194-.401.388-.605.575a36.278 36.278 0 0 1-1.766 1.633c-.014.013-.028.02-.035.033-.605.575-.492 1.137-.366 1.519l.021.06c.499 1.151 1.203 2.235 2.272 3.526l.007.007c1.942 2.275 3.989 4.048 6.247 5.406.288.174.584.314.865.448.253.12.493.234.697.355.028.013.056.033.084.047.239.114.464.167.697.167.584 0 .95-.348 1.069-.462l2.406-2.288c.239-.227.619-.502 1.062-.502.436 0 .795.261 1.013.488a.166.166 0 0 0 .014.013l3.876 3.687c.725.682.725 1.385.007 2.094zM18.875 7.582c1.843.294 3.518 1.124 4.854 2.395s2.202 2.864 2.519 4.616c.077.442.478.749.936.749.056 0 .105-.007.162-.013.521-.08.865-.549.781-1.044-.38-2.121-1.435-4.054-3.046-5.587s-3.644-2.536-5.875-2.897c-.521-.08-1.006.248-1.097.736s.246.963.767 1.044zM34.158 14.025c-.626-3.493-2.357-6.671-5.016-9.2S23.141.65 19.469.055c-.514-.087-.999.248-1.09.736-.085.495.26.957.781 1.044a16.277 16.277 0 0 1 8.646 4.262c2.378 2.261 3.926 5.105 4.481 8.223.077.442.478.749.936.749.056 0 .106-.007.162-.013.513-.074.865-.542.774-1.03z" />
    </symbol>
    <symbol id="icon-plate-big123" viewBox="0 0 32 32">
      <path fill="#bacea3" style="fill:var(--color1, #bacea3)" d="M16.255.371c8.503-.07 15.857 7.025 15.75 15.984-.118 8.48-7.184 15.653-15.954 15.515-4.353-.065-8.095-1.659-11.12-4.784-3.1-3.204-4.573-7.08-4.451-11.558C.725 7.283 7.684.288 16.255.371zm-9.62 26.327c5.427 4.927 14.139 5.147 19.762-.578 5.655-5.754 5.19-14.366.41-19.596a1.23 1.23 0 0 1-.106.143c-1.135 1.13-2.264 2.259-3.388 3.386a.216.216 0 0 1-.251.068c-.322-.095-.65-.179-.977-.258-.161-.041-.324-.072-.487-.106l-.03-.055 4.22-4.197C20.268.492 11.195.379 5.603 6.593c-5.314 5.906-4.442 14.318.029 19.086 1.274-1.233 2.488-2.529 3.83-3.735l.025.104c.084.48.179.957.249 1.432.003.035-.001.07-.011.103s-.028.064-.051.09c-.334.346-.674.688-1.018 1.027-.669.669-1.342 1.33-2.021 1.997z" />
      <path fill="#bacea3" style="fill:var(--color1, #bacea3)" d="M15.889 4.07c.83.782 1.484 1.673 1.74 2.797.399 1.761.052 3.354-1.135 4.739-.145.179-.311.326-.464.49-.109.118-.206.113-.322 0a5.815 5.815 0 0 1-1.405-2.03 5.266 5.266 0 0 1-.295-2.651c.165-1.362.845-2.445 1.856-3.34.002-.004.011-.004.025-.007zM16.062 15.587a7.463 7.463 0 0 1 .419-2.405c.619-1.623 1.82-2.506 3.524-2.701a7.854 7.854 0 0 1 1.328.032c.236.014.299.1.295.358-.013 1.611-.63 2.914-1.92 3.889a8.332 8.332 0 0 1-3.094 1.382 3.347 3.347 0 0 1-.313.066c-.19.025-.24-.02-.254-.211a1.822 1.822 0 0 1 0-.209c-.002-.073.011-.136.016-.2zM20.578 20.974c.247.014.492.027.737.045s.308.089.315.335a5.167 5.167 0 0 1-.24 1.595c-.331 1.131-1.074 1.936-2.038 2.568s-2.015.97-3.116 1.217c-.123.027-.179-.012-.179-.141.014-.374.018-.748.048-1.122a5.89 5.89 0 0 1 .583-2.25c.746-1.432 1.969-2.133 3.554-2.232h.336l-.002-.014zM11.112 10.423c1.253.016 2.343.406 3.241 1.292.601.594.895 1.339 1.095 2.148.154.676.234 1.367.238 2.06 0 .263-.066.326-.317.268-1.294-.29-2.49-.757-3.526-1.584a4.45 4.45 0 0 1-1.69-3.028 7.191 7.191 0 0 1-.061-.734c0-.215.064-.293.272-.326.247-.039.498-.064.746-.097zM15.675 26.137v.481c0 .1-.054.136-.159.114a8.538 8.538 0 0 1-3.642-1.577c-1.043-.8-1.58-1.87-1.72-3.157-.027-.249-.021-.503-.034-.753a.184.184 0 0 1 .094-.177.162.162 0 0 1 .067-.02 4.564 4.564 0 0 1 2.629.242c1.375.537 2.18 1.579 2.506 2.991.14.607.2 1.233.297 1.849l-.038.007zM16.044 20.841c.013-.825.16-1.642.437-2.42.537-1.451 1.593-2.314 3.091-2.624a5.807 5.807 0 0 1 1.842-.016c.145.016.179.116.179.24a4.71 4.71 0 0 1-.431 2.243c-.37.805-.977 1.391-1.69 1.892-.963.677-2.044 1.052-3.18 1.303-.206.045-.234.021-.245-.179-.002-.15-.002-.295-.002-.438zM11.124 15.726a4.476 4.476 0 0 1 2.889.927c.659.501 1.022 1.196 1.281 1.956.276.839.408 1.718.392 2.6 0 .267 0 .276-.272.224-1.564-.31-2.976-.927-4.107-2.087a4.174 4.174 0 0 1-1.111-2.303 8.165 8.165 0 0 1-.095-.909c-.013-.27.091-.369.358-.388.14-.013.279-.02.417-.025.077.002.158.005.249.005z" />
    </symbol>
    <symbol id="icon-bottle-big" viewBox="0 0 32 32">
      <path fill="#bacea3" style="fill:var(--color1, #bacea3)" d="M16.136.495c8.505-.07 15.857 7.025 15.75 15.984-.111 8.48-7.175 15.653-15.939 15.519-4.354-.065-8.097-1.659-11.121-4.784C1.723 24.007.25 20.13.379 15.652.608 7.407 7.572.412 16.138.495zm4.034 10.628-.03-.055c1.407-1.398 4.116-4.039 5.53-5.437C20.152.618 11.077.505 5.487 6.719c-5.316 5.906-4.442 14.318.029 19.086 1.274-1.233 4.505-4.548 5.847-5.754l.025.106c.086.478 0 .956.07 1.432.003.035-.001.07-.011.103s-.028.064-.051.09c-.335.347-2.515 2.706-2.864 3.043-.671.664-1.342 1.324-2.022 1.992 5.428 4.927 14.139 5.147 19.762-.578 5.655-5.754 5.19-14.366.412-19.596a1.23 1.23 0 0 1-.106.143c-1.129 1.129-4.601 4.587-5.727 5.716a.216.216 0 0 1-.251.068z" />
      <path fill="#bacea3" style="fill:var(--color1, #bacea3)" d="M13.818 4.154h4.546c.639.791.582 1.63.277 2.409-.369.936-.265 1.779.179 2.626.308.589.705 1.145.915 1.765.288.85.603 1.745.619 2.627.068 3.656.036 7.316.027 10.975 0 1.611-.474 2.09-2.056 2.101-1.499.01-2.995.01-4.49 0-1.446-.012-1.958-.503-1.969-1.942-.014-3.742-.047-7.485.025-11.223.018-.879.358-1.768.657-2.618.2-.58.567-1.102.859-1.654.447-.843.58-1.688.2-2.62a2.55 2.55 0 0 1 .211-2.444zm-.923 11.375c1.06.557 1.915.265 2.726-.344.95-.716 1.96-1.242 3.204-1.124.169-.006.337-.032.499-.079a3.908 3.908 0 0 0-.453-2.772c-.687-1.253-1.511-2.473-1.348-4.034-1.002-.141-1.885-.218-2.822.059.12 1.222-.281 2.262-.915 3.195-1.052 1.555-1.077 3.256-.891 5.099zm4.519.179.104.34c.173-.056.342-.123.506-.2a.922.922 0 0 0-.097-.283 3.997 3.997 0 0 0-.514.143z" />
      <path fill="#4a5b51" style="fill:var(--color2, #4a5b51)" d="m15.766.125-.002.159h.003l-.001-.159zm15.75 15.984zM15.577 31.628l.002-.159-.002.159zM4.455 26.844zM.008 15.283l.159.004-.159-.004zm19.762-4.586-.112-.113-.085.084.057.105.139-.076zM25.3 5.26l.112.113.119-.118-.124-.113-.107.117zM5.117 6.348zm.029 19.086-.116.109.11.118.116-.112-.11-.114zm5.847-5.754.154-.038-.063-.258-.197.177.106.118zm.025.106.156-.028-.156.028zm.07 1.431.158-.015v-.004l-.001-.004-.157.023zm-.063.194.114.11.002-.003.002-.003-.119-.105zm-2.863 3.042-.11-.114-.001.001.112.113zm-2.023 1.992-.111-.113-.12.118.124.113.107-.117zm19.763-.578zm.411-19.596.117-.107-.14-.154-.111.176.134.085zm-.105.143.112.112.004-.004.004-.005-.121-.103zm-5.727 5.717-.112-.112-.007.007-.006.008.126.097zM15.768.284c8.417-.069 15.696 6.954 15.59 15.824l.317.004c.108-9.049-7.317-16.215-15.91-16.145l.003.317zm15.589 15.823c-.11 8.394-7.104 15.495-15.778 15.362l-.005.317c8.854.136 15.988-7.11 16.1-15.675l-.317-.004zM15.579 31.47c-4.313-.064-8.015-1.642-11.01-4.735l-.228.221c3.054 3.156 6.837 4.767 11.233 4.832l.005-.317zm-11.01-4.736C1.496 23.558.038 19.723.166 15.287l-.317-.009c-.13 4.52 1.358 8.438 4.492 11.677l.228-.221zM.166 15.287C.393 7.126 7.287.203 15.764.284l.003-.317C7.113-.116.08 6.949-.152 15.279l.317.009zm19.774-4.611-.03-.055-.278.153.03.055.278-.153zm-.058.134c1.408-1.399 4.114-4.037 5.53-5.437l-.223-.226c-1.411 1.395-4.125 4.041-5.531 5.437l.224.225zm5.525-5.667C19.828.074 10.651-.041 5 6.242l.236.212C10.763.309 19.738.42 25.194 5.377l.213-.235zM5 6.242c-5.375 5.972-4.492 14.477.031 19.3l.231-.217C.843 20.612-.021 12.294 5.236 6.454L5 6.242zm.256 19.306c1.283-1.242 4.502-4.545 5.843-5.75l-.212-.236c-1.344 1.208-4.586 4.533-5.851 5.758l.221.228zm5.583-5.831c.018.072.021.083.023.096l.312-.057c-.005-.026-.012-.054-.027-.115l-.308.075zm.023.097c.04.222.04.447.038.687-.002.235-.006.487.031.74l.314-.046c-.033-.224-.029-.449-.027-.691a4.058 4.058 0 0 0-.043-.746l-.312.056zm.068 1.418a.102.102 0 0 1-.004.039l.302.098a.412.412 0 0 0 .018-.167l-.316.03zm-.004.04a.09.09 0 0 1-.02.034l.238.21a.416.416 0 0 0 .083-.146l-.302-.098zm-.015.028c-.343.356-2.512 2.704-2.859 3.038l.22.228c.351-.338 2.541-2.708 2.868-3.047l-.229-.22zM8.05 24.34c-.671.664-1.342 1.324-2.022 1.992l.222.227a972.5 972.5 0 0 0 2.023-1.992l-.223-.226zm-2.017 2.223c5.488 4.981 14.296 5.205 19.982-.584l-.226-.222c-5.56 5.661-14.174 5.445-19.542.572l-.213.235zm19.982-.585c5.719-5.818 5.247-14.527.416-19.814l-.234.214c4.726 5.172 5.185 13.688-.408 19.378l.226.222zm.164-19.791a1.116 1.116 0 0 1-.092.125l.241.206c.044-.051.083-.105.119-.162l-.268-.169zm-.084.115c-1.129 1.129-4.602 4.587-5.727 5.717l.225.224c1.126-1.129 4.597-4.586 5.727-5.716l-.224-.224zm-5.74 5.732a.052.052 0 0 1-.03.02l.083.306a.374.374 0 0 0 .198-.132l-.251-.194zm-.03.02a.063.063 0 0 1-.036-.002l-.119.294a.367.367 0 0 0 .238.014l-.083-.306z" />
    </symbol>
    <symbol id="icon-Group-1847plate-big1235999994444444" viewBox="0 0 32 32">
      <path fill="#bacea3" style="fill: var(--color1, #bacea3)" d="M16.255 0.371c8.503-0.070 15.857 7.025 15.75 15.984-0.118 8.48-7.184 15.653-15.954 15.515-4.353-0.065-8.095-1.659-11.12-4.784-3.1-3.204-4.573-7.080-4.451-11.558 0.245-8.245 7.204-15.24 15.775-15.157zM6.635 26.698c5.427 4.927 14.139 5.147 19.762-0.578 5.655-5.754 5.19-14.366 0.41-19.596-0.032 0.050-0.067 0.098-0.106 0.143-1.135 1.13-2.264 2.259-3.388 3.386-0.029 0.037-0.069 0.064-0.114 0.076s-0.093 0.009-0.137-0.008c-0.322-0.095-0.65-0.179-0.977-0.258-0.161-0.041-0.324-0.072-0.487-0.106l-0.030-0.055 4.22-4.197c-5.52-5.013-14.593-5.126-20.185 1.088-5.314 5.906-4.442 14.318 0.029 19.086 1.274-1.233 2.488-2.529 3.83-3.735 0.016 0.066 0.021 0.084 0.025 0.104 0.084 0.48 0.179 0.957 0.249 1.432 0.003 0.035-0.001 0.070-0.011 0.103s-0.028 0.064-0.051 0.090c-0.334 0.346-0.674 0.688-1.018 1.027-0.669 0.669-1.342 1.33-2.021 1.997z"></path>
      <path fill="#bacea3" style="fill: var(--color1, #bacea3)" d="M15.889 4.070c0.83 0.782 1.484 1.673 1.74 2.797 0.399 1.761 0.052 3.354-1.135 4.739-0.145 0.179-0.311 0.326-0.464 0.49-0.109 0.118-0.206 0.113-0.322 0-0.608-0.568-1.087-1.26-1.405-2.030-0.324-0.844-0.426-1.756-0.295-2.651 0.165-1.362 0.845-2.445 1.856-3.34 0.002-0.004 0.011-0.004 0.025-0.007z"></path>
      <path fill="#bacea3" style="fill: var(--color1, #bacea3)" d="M16.062 15.587c0.007-0.819 0.148-1.632 0.419-2.405 0.619-1.623 1.82-2.506 3.524-2.701 0.443-0.027 0.887-0.016 1.328 0.032 0.236 0.014 0.299 0.1 0.295 0.358-0.013 1.611-0.63 2.914-1.92 3.889-0.926 0.668-1.979 1.138-3.094 1.382-0.103 0.027-0.208 0.049-0.313 0.066-0.19 0.025-0.24-0.020-0.254-0.211-0.004-0.070-0.004-0.14 0-0.209-0.002-0.073 0.011-0.136 0.016-0.2z"></path>
      <path fill="#bacea3" style="fill: var(--color1, #bacea3)" d="M20.578 20.974c0.247 0.014 0.492 0.027 0.737 0.045s0.308 0.089 0.315 0.335c0.004 0.541-0.077 1.079-0.24 1.595-0.331 1.131-1.074 1.936-2.038 2.568s-2.015 0.97-3.116 1.217c-0.123 0.027-0.179-0.012-0.179-0.141 0.014-0.374 0.018-0.748 0.048-1.122 0.043-0.781 0.241-1.546 0.583-2.25 0.746-1.432 1.969-2.133 3.554-2.232 0.111 0 0.224 0 0.336 0l-0.002-0.014z"></path>
      <path fill="#bacea3" style="fill: var(--color1, #bacea3)" d="M11.112 10.423c1.253 0.016 2.343 0.406 3.241 1.292 0.601 0.594 0.895 1.339 1.095 2.148 0.154 0.676 0.234 1.367 0.238 2.060 0 0.263-0.066 0.326-0.317 0.268-1.294-0.29-2.49-0.757-3.526-1.584-0.47-0.366-0.862-0.823-1.152-1.343s-0.473-1.093-0.538-1.685c-0.033-0.243-0.053-0.488-0.061-0.734 0-0.215 0.064-0.293 0.272-0.326 0.247-0.039 0.498-0.064 0.746-0.097z"></path>
      <path fill="#bacea3" style="fill: var(--color1, #bacea3)" d="M15.675 26.137c0 0.161 0 0.32 0 0.481 0 0.1-0.054 0.136-0.159 0.114-1.321-0.232-2.569-0.773-3.642-1.577-1.043-0.8-1.58-1.87-1.72-3.157-0.027-0.249-0.021-0.503-0.034-0.753-0.002-0.024-0-0.047 0.007-0.070s0.018-0.044 0.033-0.062c0.015-0.018 0.033-0.033 0.054-0.045s0.044-0.018 0.067-0.020c0.881-0.18 1.796-0.096 2.629 0.242 1.375 0.537 2.18 1.579 2.506 2.991 0.14 0.607 0.2 1.233 0.297 1.849l-0.038 0.007z"></path>
      <path fill="#bacea3" style="fill: var(--color1, #bacea3)" d="M16.044 20.841c0.013-0.825 0.16-1.642 0.437-2.42 0.537-1.451 1.593-2.314 3.091-2.624 0.609-0.103 1.231-0.109 1.842-0.016 0.145 0.016 0.179 0.116 0.179 0.24 0.043 0.772-0.106 1.542-0.431 2.243-0.37 0.805-0.977 1.391-1.69 1.892-0.963 0.677-2.044 1.052-3.18 1.303-0.206 0.045-0.234 0.021-0.245-0.179-0.002-0.15-0.002-0.295-0.002-0.438z"></path>
      <path fill="#bacea3" style="fill: var(--color1, #bacea3)" d="M11.124 15.726c1.041-0.037 2.063 0.291 2.889 0.927 0.659 0.501 1.022 1.196 1.281 1.956 0.276 0.839 0.408 1.718 0.392 2.6 0 0.267 0 0.276-0.272 0.224-1.564-0.31-2.976-0.927-4.107-2.087-0.602-0.633-0.991-1.438-1.111-2.303-0.049-0.301-0.080-0.605-0.095-0.909-0.013-0.27 0.091-0.369 0.358-0.388 0.14-0.013 0.279-0.020 0.417-0.025 0.077 0.002 0.158 0.005 0.249 0.005z"></path>
    </symbol>
    <symbol id="icon-Group-1847plate-big123599999" viewBox="0 0 32 32">
      <path fill="#bacea3" style="fill: var(--color1, #bacea3)" d="M16.255 0.371c8.503-0.070 15.857 7.025 15.75 15.984-0.118 8.48-7.184 15.653-15.954 15.515-4.353-0.065-8.095-1.659-11.12-4.784-3.1-3.204-4.573-7.080-4.451-11.558 0.245-8.245 7.204-15.24 15.775-15.157zM6.635 26.698c5.427 4.927 14.139 5.147 19.762-0.578 5.655-5.754 5.19-14.366 0.41-19.596-0.032 0.050-0.067 0.098-0.106 0.143-1.135 1.13-2.264 2.259-3.388 3.386-0.029 0.037-0.069 0.064-0.114 0.076s-0.093 0.009-0.137-0.008c-0.322-0.095-0.65-0.179-0.977-0.258-0.161-0.041-0.324-0.072-0.487-0.106l-0.030-0.055 4.22-4.197c-5.52-5.013-14.593-5.126-20.185 1.088-5.314 5.906-4.442 14.318 0.029 19.086 1.274-1.233 2.488-2.529 3.83-3.735 0.016 0.066 0.021 0.084 0.025 0.104 0.084 0.48 0.179 0.957 0.249 1.432 0.003 0.035-0.001 0.070-0.011 0.103s-0.028 0.064-0.051 0.090c-0.334 0.346-0.674 0.688-1.018 1.027-0.669 0.669-1.342 1.33-2.021 1.997z"></path>
      <path fill="#bacea3" style="fill: var(--color1, #bacea3)" d="M15.889 4.070c0.83 0.782 1.484 1.673 1.74 2.797 0.399 1.761 0.052 3.354-1.135 4.739-0.145 0.179-0.311 0.326-0.464 0.49-0.109 0.118-0.206 0.113-0.322 0-0.608-0.568-1.087-1.26-1.405-2.030-0.324-0.844-0.426-1.756-0.295-2.651 0.165-1.362 0.845-2.445 1.856-3.34 0.002-0.004 0.011-0.004 0.025-0.007z"></path>
      <path fill="#bacea3" style="fill: var(--color1, #bacea3)" d="M16.062 15.587c0.007-0.819 0.148-1.632 0.419-2.405 0.619-1.623 1.82-2.506 3.524-2.701 0.443-0.027 0.887-0.016 1.328 0.032 0.236 0.014 0.299 0.1 0.295 0.358-0.013 1.611-0.63 2.914-1.92 3.889-0.926 0.668-1.979 1.138-3.094 1.382-0.103 0.027-0.208 0.049-0.313 0.066-0.19 0.025-0.24-0.020-0.254-0.211-0.004-0.070-0.004-0.14 0-0.209-0.002-0.073 0.011-0.136 0.016-0.2z"></path>
      <path fill="#bacea3" style="fill: var(--color1, #bacea3)" d="M20.578 20.974c0.247 0.014 0.492 0.027 0.737 0.045s0.308 0.089 0.315 0.335c0.004 0.541-0.077 1.079-0.24 1.595-0.331 1.131-1.074 1.936-2.038 2.568s-2.015 0.97-3.116 1.217c-0.123 0.027-0.179-0.012-0.179-0.141 0.014-0.374 0.018-0.748 0.048-1.122 0.043-0.781 0.241-1.546 0.583-2.25 0.746-1.432 1.969-2.133 3.554-2.232 0.111 0 0.224 0 0.336 0l-0.002-0.014z"></path>
      <path fill="#bacea3" style="fill: var(--color1, #bacea3)" d="M11.112 10.423c1.253 0.016 2.343 0.406 3.241 1.292 0.601 0.594 0.895 1.339 1.095 2.148 0.154 0.676 0.234 1.367 0.238 2.060 0 0.263-0.066 0.326-0.317 0.268-1.294-0.29-2.49-0.757-3.526-1.584-0.47-0.366-0.862-0.823-1.152-1.343s-0.473-1.093-0.538-1.685c-0.033-0.243-0.053-0.488-0.061-0.734 0-0.215 0.064-0.293 0.272-0.326 0.247-0.039 0.498-0.064 0.746-0.097z"></path>
      <path fill="#bacea3" style="fill: var(--color1, #bacea3)" d="M15.675 26.137c0 0.161 0 0.32 0 0.481 0 0.1-0.054 0.136-0.159 0.114-1.321-0.232-2.569-0.773-3.642-1.577-1.043-0.8-1.58-1.87-1.72-3.157-0.027-0.249-0.021-0.503-0.034-0.753-0.002-0.024-0-0.047 0.007-0.070s0.018-0.044 0.033-0.062c0.015-0.018 0.033-0.033 0.054-0.045s0.044-0.018 0.067-0.020c0.881-0.18 1.796-0.096 2.629 0.242 1.375 0.537 2.18 1.579 2.506 2.991 0.14 0.607 0.2 1.233 0.297 1.849l-0.038 0.007z"></path>
      <path fill="#bacea3" style="fill: var(--color1, #bacea3)" d="M16.044 20.841c0.013-0.825 0.16-1.642 0.437-2.42 0.537-1.451 1.593-2.314 3.091-2.624 0.609-0.103 1.231-0.109 1.842-0.016 0.145 0.016 0.179 0.116 0.179 0.24 0.043 0.772-0.106 1.542-0.431 2.243-0.37 0.805-0.977 1.391-1.69 1.892-0.963 0.677-2.044 1.052-3.18 1.303-0.206 0.045-0.234 0.021-0.245-0.179-0.002-0.15-0.002-0.295-0.002-0.438z"></path>
      <path fill="#bacea3" style="fill: var(--color1, #bacea3)" d="M11.124 15.726c1.041-0.037 2.063 0.291 2.889 0.927 0.659 0.501 1.022 1.196 1.281 1.956 0.276 0.839 0.408 1.718 0.392 2.6 0 0.267 0 0.276-0.272 0.224-1.564-0.31-2.976-0.927-4.107-2.087-0.602-0.633-0.991-1.438-1.111-2.303-0.049-0.301-0.080-0.605-0.095-0.909-0.013-0.27 0.091-0.369 0.358-0.388 0.14-0.013 0.279-0.020 0.417-0.025 0.077 0.002 0.158 0.005 0.249 0.005z"></path>
    </symbol>
    <svg id="1235" width="122" height="121" viewBox="0 0 122 121" fill="none" xmlns="http://www.w3.org/2000/svg">
      <path d="M61.4643 1.40189C93.6164 1.13796 121.424 27.964 121.018 61.8418C120.571 93.9058 93.8533 121.03 60.6929 120.509C44.2345 120.265 30.0838 114.235 18.6468 102.419C6.92566 90.3056 1.35607 75.6473 1.81625 58.7152C2.74339 27.5377 29.0551 1.09059 61.4643 1.40189ZM25.0894 100.951C45.6083 119.581 78.5521 120.414 99.8154 98.7648C121.2 77.0076 119.441 44.4427 101.365 24.6683C101.245 24.8581 101.112 25.0391 100.966 25.2097C96.6753 29.4822 92.405 33.7502 88.1551 38.0137C88.0469 38.1541 87.8957 38.2552 87.7246 38.3016C87.5536 38.3481 87.372 38.3372 87.2076 38.2708C85.9895 37.9122 84.7511 37.5941 83.5126 37.2963C82.9036 37.1407 82.2877 37.0256 81.6719 36.897L81.5568 36.6873L97.5144 20.8176C76.6437 1.86208 42.3328 1.43573 21.1914 24.9322C1.0989 47.2647 4.39464 79.0716 21.2997 97.1001C26.1181 92.4373 30.7064 87.5377 35.782 82.9764C35.8429 83.2268 35.8632 83.2945 35.8767 83.369C36.1948 85.1826 36.5535 86.9895 36.8174 88.7829C36.8299 88.9144 36.8153 89.0471 36.7746 89.1729C36.7339 89.2986 36.6678 89.4146 36.5805 89.5138C35.3173 90.8221 34.0337 92.117 32.7299 93.3983C30.1988 95.9293 27.6543 98.4265 25.0894 100.951Z" fill="#BACEA3" />
      <path d="M60.0629 0.302707V0.302754L60.0683 0.30271C92.0536 0.0401495 119.723 26.7306 119.319 60.4388C118.875 92.3411 92.2891 119.328 59.299 118.809H59.2987C42.9188 118.567 28.8445 112.569 17.4638 100.811C5.8002 88.7572 0.259617 74.1778 0.71757 57.3246C1.64017 26.3067 27.8209 -0.00698881 60.0629 0.302707ZM23.4804 99.3377L23.2543 99.5603L23.4892 99.7737C44.1207 118.507 77.2485 119.346 98.6308 97.5759C120.135 75.6971 118.364 42.9506 100.188 23.0667L99.9228 22.7766L99.7129 23.109C99.6028 23.2833 99.4805 23.4495 99.3469 23.6066C95.059 27.8764 90.7914 32.1418 86.5441 36.4027L86.5306 36.4162L86.5189 36.4313C86.4507 36.5199 86.3554 36.5836 86.2475 36.6129C86.1396 36.6422 86.0251 36.6354 85.9215 36.5935L85.9079 36.588L85.8938 36.5839C84.6699 36.2235 83.4269 35.9043 82.1864 35.606C81.7186 35.4865 81.2446 35.3901 80.7782 35.2952C80.7223 35.2838 80.6665 35.2725 80.6108 35.2611L96.3274 19.6312L96.5512 19.4086L96.3176 19.1964C75.331 0.135625 40.8289 -0.294804 19.5698 23.3324L19.7928 23.5331L19.5698 23.3324C-0.634947 45.7897 2.67909 77.773 19.6823 95.9061L19.8907 96.1284L20.1097 95.9165C21.8584 94.2243 23.5723 92.5057 25.2878 90.7854C28.196 87.8691 31.1089 84.9481 34.2041 82.1432C34.2974 82.6727 34.3937 83.1999 34.4896 83.7252C34.7158 84.9642 34.9402 86.1931 35.1208 87.419C35.1283 87.5075 35.118 87.5967 35.0906 87.6812C35.0632 87.7659 35.0191 87.8443 34.9609 87.9116C33.7012 89.2163 32.4212 90.5074 31.121 91.7851L31.1192 91.787C28.92 93.9861 26.7107 96.1597 24.4857 98.3486C24.151 98.6779 23.8159 99.0076 23.4804 99.3377Z" stroke="#4A5B51" stroke-width="0.6" />
      <path d="M60.079 15.3889C63.2191 18.3463 65.6892 21.7165 66.657 25.9664C68.1661 32.6256 66.8532 38.6486 62.3664 43.8865C61.8183 44.5633 61.1889 45.1182 60.6137 45.7408C60.2008 46.1875 59.8354 46.1672 59.3955 45.7408C57.097 43.5914 55.2856 40.9747 54.0831 38.0666C52.8578 34.8767 52.4733 31.4253 52.9665 28.044C53.5891 22.894 56.1607 18.7997 59.9843 15.416C59.991 15.4025 60.0249 15.4025 60.079 15.3889Z" fill="#BACEA3" />
      <path d="M60.735 58.9368C60.7611 55.8387 61.2961 52.766 62.3186 49.8414C64.6601 43.7034 69.201 40.367 75.6436 39.6294C77.3179 39.5281 78.9977 39.5689 80.6651 39.7512C81.5584 39.8053 81.7952 40.1302 81.7817 41.1047C81.7343 47.1953 79.3996 52.122 74.5202 55.8103C71.0194 58.3355 67.0366 60.1138 62.8194 61.0347C62.4291 61.1383 62.0338 61.2218 61.6351 61.2851C60.9177 61.3799 60.7282 61.2107 60.6741 60.4866C60.6606 60.2228 60.6606 59.9585 60.6741 59.6948C60.6673 59.4173 60.7147 59.1805 60.735 58.9368Z" fill="#BACEA3" />
      <path d="M77.8091 79.3069C78.743 79.361 79.6702 79.4084 80.5973 79.4761C81.5244 79.5437 81.7613 79.8144 81.7884 80.7416C81.8031 82.7865 81.4971 84.8212 80.8815 86.7714C79.6296 91.0484 76.8211 94.0937 73.1734 96.4826C69.5258 98.8715 65.5533 100.151 61.3913 101.084C60.9244 101.186 60.7146 101.037 60.7146 100.55C60.7687 99.1355 60.7823 97.7211 60.8973 96.3067C61.059 93.3525 61.809 90.4604 63.1035 87.8C65.9255 82.3861 70.5477 79.7332 76.5436 79.361C76.9632 79.361 77.3895 79.361 77.8159 79.361L77.8091 79.3069Z" fill="#BACEA3" />
      <path d="M42.0161 39.4133C46.7533 39.4742 50.8746 40.9495 54.2719 44.2994C56.5457 46.5462 57.6556 49.3614 58.4135 52.4203C58.9953 54.9764 59.2971 57.5882 59.3136 60.2096C59.3136 61.2044 59.0632 61.4413 58.1158 61.2247C53.2229 60.1284 48.7023 58.3621 44.7839 55.2356C43.0071 53.8515 41.5262 52.1249 40.4288 50.158C39.3314 48.1912 38.64 46.0241 38.3955 43.7851C38.2715 42.8647 38.1947 41.9386 38.1654 41.0104C38.1654 40.1984 38.409 39.9006 39.1941 39.7788C40.128 39.6299 41.0754 39.5351 42.0161 39.4133Z" fill="#BACEA3" />
      <path d="M59.273 98.8314C59.273 99.4404 59.273 100.043 59.273 100.652C59.273 101.031 59.07 101.166 58.6707 101.085C53.6758 100.206 48.9579 98.1636 44.899 95.1228C40.9536 92.0978 38.9233 88.0509 38.3955 83.1851C38.294 82.2444 38.3143 81.2834 38.2669 80.336C38.2575 80.247 38.2659 80.1571 38.2915 80.0714C38.3172 79.9857 38.3595 79.906 38.4162 79.8368C38.4728 79.7675 38.5426 79.7102 38.6215 79.6681C38.7004 79.6261 38.7869 79.6 38.876 79.5916C42.2074 78.9112 45.6656 79.229 48.8173 80.5052C54.0147 82.5354 57.06 86.4741 58.2917 91.8136C58.8196 94.1077 59.0497 96.4763 59.4151 98.8043L59.273 98.8314Z" fill="#BACEA3" />
      <path d="M60.6675 78.8064C60.7166 75.6871 61.2744 72.5966 62.3187 69.6569C64.349 64.1685 68.3417 60.9066 74.0061 59.7358C76.3094 59.3459 78.66 59.3254 80.9698 59.6749C81.5179 59.7358 81.6465 60.1148 81.6465 60.5817C81.8077 63.4993 81.2475 66.4117 80.0156 69.0613C78.6147 72.1067 76.3205 74.3196 73.6271 76.2145C69.9862 78.7726 65.8987 80.1937 61.6014 81.1412C60.8231 81.3104 60.7149 81.2224 60.6742 80.4644C60.6675 79.896 60.6675 79.3478 60.6675 78.8064Z" fill="#BACEA3" />
      <path d="M42.0631 59.4651C46.0011 59.326 49.8642 60.5658 52.9857 62.9707C55.4762 64.8655 56.8499 67.4913 57.8312 70.3675C58.8746 73.5385 59.3756 76.8628 59.3133 80.2005C59.3133 81.2089 59.3133 81.2427 58.2846 81.0464C52.3699 79.8757 47.0304 77.5409 42.7534 73.1556C40.4764 70.7632 39.0066 67.7172 38.5508 64.446C38.3671 63.3076 38.2473 62.1599 38.1922 61.0081C38.1448 59.9862 38.5373 59.614 39.5456 59.5396C40.0735 59.4922 40.6014 59.4651 41.1224 59.4448C41.4134 59.4516 41.718 59.4651 42.0631 59.4651Z" fill="#BACEA3" />
      <path d="M60.7205 41.9499L60.7204 41.9499L60.7152 41.9563C60.4507 42.2828 60.1648 42.5822 59.8688 42.8816C59.7963 42.9549 59.7229 43.0285 59.6491 43.1025C59.4243 43.328 59.1952 43.5577 58.9752 43.7957C58.7955 43.9902 58.6765 44.0277 58.6005 44.0268C58.5167 44.0257 58.3859 43.9775 58.1862 43.784L58.1863 43.7839L58.1823 43.7803C55.9161 41.661 54.1298 39.0811 52.9437 36.214C51.7379 33.0731 51.3597 29.675 51.8452 26.3458L51.8453 26.3459L51.8462 26.3386C52.4505 21.3399 54.9208 17.3465 58.6235 14.0253C61.6576 16.9201 64.0136 20.1956 64.9463 24.2913C66.4358 30.8636 65.1419 36.7883 60.7205 41.9499Z" stroke="#4A5B51" stroke-width="0.6" />
      <path d="M59.6159 57.2203L59.6168 57.2091L59.6169 57.1979C59.6427 54.1341 60.1715 51.0953 61.1823 48.2029C62.3359 45.1807 64.0248 42.8622 66.2064 41.2078C68.3876 39.5537 71.0774 38.5515 74.2517 38.1869C75.9064 38.0873 77.5665 38.1278 79.2144 38.3079L79.2216 38.3087L79.2288 38.3092C79.6561 38.3351 79.8259 38.4231 79.9118 38.5296C80.0085 38.6495 80.0703 38.8757 80.0636 39.359L80.0636 39.3609C80.0169 45.3622 77.7232 50.1986 72.9239 53.8275C69.4571 56.3276 65.5132 58.0883 61.3373 59.0002L61.3372 58.9999L61.3243 59.0033C60.9452 59.1039 60.5612 59.1851 60.1738 59.2468C59.8152 59.2937 59.7147 59.2503 59.6809 59.2219C59.6434 59.1904 59.5831 59.0918 59.5554 58.7262C59.5426 58.4739 59.5427 58.221 59.5556 57.9687L59.5562 57.9574L59.5559 57.946C59.5518 57.7783 59.5682 57.6438 59.5868 57.4913C59.5968 57.4089 59.6075 57.3212 59.6159 57.2203Z" stroke="#4A5B51" stroke-width="0.6" />
      <path d="M76.7376 77.9196L76.7334 77.8855C76.8375 77.8914 76.9414 77.8973 77.0453 77.9031C77.753 77.943 78.4548 77.9825 79.1574 78.0338C79.6131 78.0671 79.7983 78.1479 79.8925 78.2493C79.9889 78.353 80.0567 78.5485 80.0703 79.0056C80.0844 81.0181 79.7831 83.0204 79.1774 84.9396L79.1773 84.9396L79.1755 84.9456C77.9493 89.1345 75.1986 92.1275 71.591 94.4902C67.9867 96.8507 64.0542 98.1197 59.9087 99.05C59.6953 99.0963 59.6432 99.0591 59.6429 99.0589C59.6424 99.0585 59.6404 99.0569 59.6371 99.052C59.6335 99.0466 59.6275 99.0358 59.6212 99.0169C59.6081 98.9778 59.5969 98.9136 59.5965 98.8138C59.6121 98.4063 59.6243 98.0011 59.6364 97.5972C59.6667 96.59 59.6967 95.5917 59.7782 94.5895L59.7783 94.5895L59.7788 94.5816C59.9382 91.6687 60.6775 88.817 61.9534 86.1935C64.7202 80.8882 69.2378 78.2881 75.1349 77.9196H75.1354H75.1378H75.1403H75.1427H75.1452H75.1477H75.1501H75.1526H75.155H75.1575H75.16H75.1624H75.1649H75.1673H75.1698H75.1723H75.1747H75.1772H75.1796H75.1821H75.1846H75.187H75.1895H75.192H75.1944H75.1969H75.1993H75.2018H75.2043H75.2067H75.2092H75.2117H75.2141H75.2166H75.2191H75.2215H75.224H75.2264H75.2289H75.2314H75.2338H75.2363H75.2388H75.2412H75.2437H75.2462H75.2486H75.2511H75.2536H75.256H75.2585H75.261H75.2634H75.2659H75.2684H75.2708H75.2733H75.2758H75.2782H75.2807H75.2832H75.2856H75.2881H75.2906H75.293H75.2955H75.298H75.3004H75.3029H75.3054H75.3079H75.3103H75.3128H75.3153H75.3177H75.3202H75.3227H75.3251H75.3276H75.3301H75.3326H75.335H75.3375H75.34H75.3424H75.3449H75.3474H75.3498H75.3523H75.3548H75.3573H75.3597H75.3622H75.3647H75.3671H75.3696H75.3721H75.3746H75.377H75.3795H75.382H75.3845H75.3869H75.3894H75.3919H75.3944H75.3968H75.3993H75.4018H75.4042H75.4067H75.4092H75.4117H75.4141H75.4166H75.4191H75.4216H75.424H75.4265H75.429H75.4315H75.4339H75.4364H75.4389H75.4414H75.4438H75.4463H75.4488H75.4513H75.4537H75.4562H75.4587H75.4612H75.4637H75.4661H75.4686H75.4711H75.4736H75.476H75.4785H75.481H75.4835H75.486H75.4884H75.4909H75.4934H75.4959H75.4983H75.5008H75.5033H75.5058H75.5083H75.5107H75.5132H75.5157H75.5182H75.5207H75.5231H75.5256H75.5281H75.5306H75.5331H75.5355H75.538H75.5405H75.543H75.5455H75.5479H75.5504H75.5529H75.5554H75.5579H75.5603H75.5628H75.5653H75.5678H75.5703H75.5727H75.5752H75.5777H75.5802H75.5827H75.5852H75.5876H75.5901H75.5926H75.5951H75.5976H75.6H75.6025H75.605H75.6075H75.61H75.6125H75.6149H75.6174H75.6199H75.6224H75.6249H75.6274H75.6298H75.6323H75.6348H75.6373H75.6398H75.6423H75.6447H75.6472H75.6497H75.6522H75.6547H75.6572H75.6597H75.6621H75.6646H75.6671H75.6696H75.6721H75.6746H75.6771H75.6795H75.682H75.6845H75.687H75.6895H75.692H75.6945H75.6969H75.6994H75.7019H75.7044H75.7069H75.7094H75.7119H75.7143H75.7168H75.7193H75.7218H75.7243H75.7268H75.7293H75.7318H75.7342H75.7367H75.7392H75.7417H75.7442H75.7467H75.7492H75.7517H75.7541H75.7566H75.7591H75.7616H75.7641H75.7666H75.7691H75.7716H75.774H75.7765H75.779H75.7815H75.784H75.7865H75.789H75.7915H75.794H75.7965H75.7989H75.8014H75.8039H75.8064H75.8089H75.8114H75.8139H75.8164H75.8189H75.8213H75.8238H75.8263H75.8288H75.8313H75.8338H75.8363H75.8388H75.8413H75.8438H75.8463H75.8487H75.8512H75.8537H75.8562H75.8587H75.8612H75.8637H75.8662H75.8687H75.8712H75.8737H75.8761H75.8786H75.8811H75.8836H75.8861H75.8886H75.8911H75.8936H75.8961H75.8986H75.9011H75.9036H75.906H75.9085H75.911H75.9135H75.916H75.9185H75.921H75.9235H75.926H75.9285H75.931H75.9335H75.936H75.9385H75.9409H75.9434H75.9459H75.9484H75.9509H75.9534H75.9559H75.9584H75.9609H75.9634H75.9659H75.9684H75.9709H75.9734H75.9759H75.9783H75.9808H75.9833H75.9858H75.9883H75.9908H75.9933H75.9958H75.9983H76.0008H76.0033H76.0058H76.0083H76.0108H76.0133H76.0158H76.0183H76.0208H76.0232H76.0257H76.0282H76.0307H76.0332H76.0357H76.0382H76.0407H76.0432H76.0457H76.0482H76.0507H76.0532H76.0557H76.0582H76.0607H76.0632H76.0657H76.0682H76.0707H76.0731H76.0756H76.0781H76.0806H76.0831H76.0856H76.0881H76.0906H76.0931H76.0956H76.0981H76.1006H76.1031H76.1056H76.1081H76.1106H76.1131H76.1156H76.1181H76.1206H76.1231H76.1256H76.1281H76.1306H76.1331H76.1355H76.138H76.1405H76.143H76.1455H76.148H76.1505H76.153H76.1555H76.158H76.1605H76.163H76.1655H76.168H76.1705H76.173H76.1755H76.178H76.1805H76.183H76.1855H76.188H76.1905H76.193H76.1955H76.198H76.2005H76.203H76.2055H76.208H76.2105H76.213H76.2155H76.2179H76.2204H76.2229H76.2254H76.2279H76.2304H76.2329H76.2354H76.2379H76.2404H76.2429H76.2454H76.2479H76.2504H76.2529H76.2554H76.2579H76.2604H76.2629H76.2654H76.2679H76.2704H76.2729H76.2754H76.2779H76.2804H76.2829H76.2854H76.2879H76.2904H76.2929H76.2954H76.2979H76.3004H76.3029H76.3054H76.3079H76.3104H76.3129H76.3154H76.3179H76.3204H76.3229H76.3253H76.3278H76.3303H76.3328H76.3353H76.3378H76.3403H76.3428H76.3453H76.3478H76.3503H76.3528H76.3553H76.3578H76.3603H76.3628H76.3653H76.3678H76.3703H76.3728H76.3753H76.3778H76.3803H76.3828H76.3853H76.3878H76.3903H76.3928H76.3953H76.3978H76.7376Z" stroke="#4A5B51" stroke-width="0.6" />
      <path d="M56.7645 59.1908L56.7633 59.1905C51.8988 58.1006 47.4248 56.3491 43.553 53.2596L43.553 53.2596L43.5502 53.2574C41.8051 51.8981 40.3505 50.2022 39.2727 48.2704C38.1949 46.3386 37.5158 44.2101 37.2756 42.0111L37.2757 42.0111L37.2747 42.0036C37.1523 41.095 37.0764 40.1807 37.0473 39.2643C37.0478 38.8789 37.1089 38.6931 37.1979 38.5862C37.2852 38.4812 37.4504 38.3914 37.822 38.3338L37.822 38.3338L37.8232 38.3336C38.4403 38.2352 39.0585 38.1613 39.6835 38.0865C39.9922 38.0496 40.3026 38.0125 40.6153 37.9721C45.2771 38.0363 49.3134 39.4884 52.6429 42.7714C54.8589 44.9609 55.9511 47.7126 56.7036 50.7482C57.28 53.2819 57.579 55.8708 57.5955 58.4692C57.5955 58.7086 57.58 58.8821 57.55 59.0066C57.5203 59.1296 57.4824 59.18 57.4557 59.203C57.4312 59.2243 57.3832 59.251 57.2706 59.2563C57.1538 59.2617 56.9912 59.2426 56.7645 59.1908Z" stroke="#4A5B51" stroke-width="0.6" />
      <path d="M57.5549 96.8414L57.6562 96.8221C57.5577 96.1753 57.4686 95.5298 57.3799 94.8864C57.1592 93.2866 56.9404 91.7 56.5813 90.1393C55.3693 84.8851 52.3848 81.0331 47.2901 79.0429L47.2866 79.0416L47.2866 79.0416C44.1897 77.7876 40.7915 77.4753 37.5179 78.1438L37.5022 78.147L37.4862 78.1485C37.4367 78.1532 37.3885 78.1677 37.3446 78.1912C37.3006 78.2146 37.2618 78.2465 37.2303 78.285C37.1987 78.3236 37.1751 78.368 37.1609 78.4157C37.1466 78.4634 37.142 78.5134 37.1472 78.563L37.148 78.5711L37.1484 78.5793C37.1662 78.9348 37.1746 79.2825 37.1828 79.6258C37.1974 80.2282 37.2115 80.8171 37.2756 81.411L57.5549 96.8414ZM57.5549 96.8414V97.0897M57.5549 96.8414V97.0897M57.5549 97.0897V97.0932V97.0968V97.1004V97.104V97.1075V97.1111V97.1147V97.1182V97.1218V97.1254V97.1289V97.1325V97.1361V97.1396V97.1432V97.1468V97.1503V97.1539V97.1575V97.161V97.1646V97.1682V97.1717V97.1753V97.1789V97.1824V97.186V97.1895V97.1931V97.1967V97.2002V97.2038V97.2074V97.2109V97.2145V97.2181V97.2216V97.2252V97.2288V97.2323V97.2359V97.2394V97.243V97.2466V97.2501V97.2537V97.2572V97.2608V97.2644V97.2679V97.2715V97.2751V97.2786V97.2822V97.2857V97.2893V97.2929V97.2964V97.3V97.3035V97.3071V97.3107V97.3142V97.3178V97.3214V97.3249V97.3285V97.332V97.3356V97.3391V97.3427V97.3463V97.3498V97.3534V97.3569V97.3605V97.3641V97.3676V97.3712V97.3747V97.3783V97.3819V97.3854V97.389V97.3925V97.3961V97.3996V97.4032V97.4068V97.4103V97.4139V97.4174V97.421V97.4245V97.4281V97.4317V97.4352V97.4388V97.4423V97.4459V97.4494V97.453V97.4566V97.4601V97.4637V97.4672V97.4708V97.4743V97.4779V97.4814V97.485V97.4886V97.4921V97.4957V97.4992V97.5028V97.5063V97.5099V97.5134V97.517V97.5205V97.5241V97.5277V97.5312V97.5348V97.5383V97.5419V97.5454V97.549V97.5525V97.5561V97.5596V97.5632V97.5667V97.5703V97.5739V97.5774V97.581V97.5845V97.5881V97.5916V97.5952V97.5987V97.6023V97.6058V97.6094V97.6129V97.6165V97.62V97.6236V97.6271V97.6307V97.6342V97.6378V97.6414V97.6449V97.6485V97.652V97.6556V97.6591V97.6627V97.6662V97.6698V97.6733V97.6769V97.6804V97.684V97.6875V97.6911V97.6946V97.6982V97.7017V97.7053V97.7088V97.7124V97.7159V97.7195V97.723V97.7266V97.7301V97.7337V97.7372V97.7408V97.7443V97.7479V97.7514V97.755V97.7585V97.7621V97.7656V97.7692V97.7727V97.7763V97.7798V97.7834V97.7869V97.7905V97.794V97.7976V97.8011V97.8047V97.8082V97.8118V97.8153V97.8189V97.8224V97.826V97.8295V97.8331V97.8366V97.8402V97.8437V97.8473V97.8508V97.8544V97.8579V97.8615V97.865V97.8686V97.8721V97.8757V97.8792V97.8828V97.8863V97.8899V97.8934V97.897V97.9005V97.9041V97.9076V97.9112V97.9147V97.9183V97.9218V97.9254V97.9289V97.9325V97.936V97.9396V97.9431V97.9467V97.9502V97.9538V97.9573V97.9609V97.9644V97.968V97.9715V97.9751V97.9786V97.9822V97.9857V97.9893V97.9928V97.9963V97.9999V98.0034V98.007V98.0105V98.0141V98.0176V98.0212V98.0247V98.0283V98.0318V98.0354V98.0389V98.0425V98.046V98.0496V98.0531V98.0567V98.0602V98.0638V98.0673V98.0709V98.0744V98.078V98.0815V98.0851V98.0886V98.0922V98.0957V98.0993V98.1028V98.1064V98.1099V98.1135V98.117V98.1206V98.1241V98.1277V98.1312V98.1348V98.1383V98.1419V98.1454V98.149V98.1525V98.1561V98.1596V98.1632V98.1667V98.1703V98.1738V98.1774V98.1809V98.1845V98.188V98.1916V98.1951V98.1987V98.2022V98.2058V98.2093V98.2129V98.2164V98.22V98.2235V98.2271V98.2306V98.2342V98.2377V98.2413V98.2448V98.2484V98.2519V98.2555V98.259V98.2626V98.2661V98.2697V98.2732V98.2768V98.2803V98.2839V98.2874V98.291V98.2945V98.2981V98.3016V98.3052V98.3087V98.3123V98.3158V98.3194V98.3229V98.3265V98.33V98.3336V98.3371V98.3407V98.3442V98.3478V98.3513V98.3549V98.3584V98.362V98.3655V98.3691V98.3727V98.3762V98.3798V98.3833V98.3869V98.3904V98.394V98.3975V98.4011V98.4046V98.4082V98.4117V98.4153V98.4188V98.4224V98.4259V98.4295V98.4331V98.4366V98.4402V98.4437V98.4473V98.4508V98.4544V98.4579V98.4615V98.465V98.4686V98.4721V98.4757V98.4793V98.4828V98.4864V98.4899V98.4935V98.497V98.5006V98.5041V98.5077V98.5112V98.5148V98.5184V98.5219V98.5255V98.529V98.5326V98.5361V98.5397V98.5432V98.5468V98.5504V98.5539V98.5575V98.561V98.5646V98.5681V98.5717V98.5753V98.5788V98.5824V98.5859V98.5895V98.593V98.5966V98.6002V98.6037V98.6073V98.6108V98.6144V98.6179V98.6215V98.6251V98.6286V98.6322V98.6357V98.6393V98.6429V98.6464V98.65V98.6535V98.6571V98.6607V98.6642V98.6678V98.6713V98.6749V98.6784V98.682V98.6856V98.6891V98.6927V98.6962V98.6998V98.7034V98.7069V98.7105V98.7141V98.7176V98.7212V98.7247V98.7283V98.7319V98.7354V98.739V98.7425V98.7461V98.7497V98.7532V98.7568V98.7604V98.7639V98.7675V98.771V98.7746V98.7782V98.7817V98.7853V98.7889V98.7924V98.796V98.7996V98.8031V98.8067V98.8103V98.8138V98.8174V98.8209V98.8245V98.8281V98.8316V98.8352V98.8388V98.8423V98.8459V98.8495V98.853V98.8566V98.8602V98.8637V98.8673V98.8709V98.8744V98.878V98.8816V98.8851V98.8887V98.8923V98.8958V98.8994V98.903V98.9065V98.9101C57.5549 98.98 57.5453 99.02 57.5375 99.04C57.5338 99.0493 57.531 99.0533 57.5303 99.0541C57.5303 99.0542 57.5302 99.0543 57.5302 99.0544L57.5301 99.0544L57.5289 99.055C57.5277 99.0556 57.5257 99.0565 57.5224 99.0576C57.5159 99.0599 57.5044 99.0628 57.4866 99.0645C57.4496 99.068 57.3931 99.0657 57.3124 99.0493L57.3124 99.0491M57.5549 97.0897L57.3124 99.0491M57.3124 99.0491L57.3046 99.0478M57.3124 99.0491L57.3046 99.0478M57.3046 99.0478C52.3566 98.1771 47.6831 96.154 43.6621 93.142M57.3046 99.0478L43.6621 93.142M43.6621 93.142C39.79 90.1727 37.7957 86.2046 37.2756 81.4112L43.6621 93.142Z" stroke="#4A5B51" stroke-width="0.6" />
      <path d="M79.5069 58.2301L79.5069 58.2303L79.5187 58.2316C79.7191 58.2539 79.798 58.3245 79.8415 58.3938C79.897 58.4824 79.9285 58.6249 79.9285 58.8403V58.8486L79.929 58.8568C80.0875 61.7252 79.5368 64.5885 78.3256 67.1934L78.325 67.1945C76.9546 70.1737 74.7065 72.3493 72.0367 74.2276C68.4403 76.7544 64.395 78.164 60.1193 79.1067C59.9265 79.1486 59.7972 79.1693 59.7067 79.1721C59.6588 79.1736 59.634 79.1695 59.6232 79.1668C59.6183 79.1578 59.6095 79.138 59.5999 79.0996C59.5797 79.0186 59.5662 78.898 59.5562 78.7131C59.5495 78.1498 59.5495 77.6062 59.5495 77.0673C59.5984 73.9821 60.15 70.9254 61.1828 68.0177C63.175 62.6339 67.079 59.4409 72.6435 58.2893C74.9137 57.9056 77.2304 57.8856 79.5069 58.2301ZM59.6273 79.1731C59.6273 79.1732 59.627 79.1728 59.6264 79.172L59.6273 79.1731Z" stroke="#4A5B51" stroke-width="0.6" />
      <path d="M40.645 58.0234V58.0236L40.6556 58.0232C44.5238 57.8866 48.3184 59.1044 51.3846 61.4666L51.386 61.4677C53.8082 63.3106 55.1563 65.8715 56.1287 68.7211C57.1611 71.8596 57.6569 75.1498 57.5953 78.4532L57.5952 78.4532V78.4588C57.5952 78.7184 57.5947 78.8892 57.581 79.0102C57.5761 79.0534 57.5703 79.081 57.5658 79.0977C57.5488 79.0993 57.5212 79.1002 57.4792 79.0977C57.3579 79.0904 57.1857 79.0602 56.9237 79.0102C51.0516 77.8478 45.7743 75.535 41.5514 71.2058C39.3183 68.859 37.8769 65.8713 37.4299 62.6629L37.4299 62.6628L37.4289 62.6564C37.2469 61.5293 37.1284 60.3928 37.0737 59.2523C37.0515 58.7712 37.1383 58.5248 37.2726 58.3833C37.4115 58.2368 37.6659 58.1328 38.1496 58.0971L38.1496 58.0971L38.1544 58.0967C38.6718 58.0502 39.1908 58.0234 39.7067 58.0033C39.7878 58.0052 39.8716 58.0077 39.958 58.0103C40.1705 58.0166 40.3993 58.0234 40.645 58.0234Z" stroke="#4A5B51" stroke-width="0.6" />
    </svg>
    <symbol id="icon-samboo" viewBox="0 0 165 32">
      <path fill="#fff" style="fill:var(--color1, #fff)" d="M7.222 30.729a19.208 19.208 0 0 1-3.91-1.223A14.853 14.853 0 0 1 0 27.494l2.742-3.872c1.195.968 2.552 1.681 4.073 2.165a15.45 15.45 0 0 0 4.779.739c2.091 0 3.72-.357 4.887-1.044 1.168-.713 1.738-1.681 1.738-2.98 0-.892-.271-1.63-.787-2.165s-1.195-.917-2.036-1.172c-.842-.255-1.901-.484-3.204-.688-.054-.025-.081-.025-.136-.025s-.081 0-.136-.025l-.38-.051c-2.091-.331-3.828-.713-5.186-1.146s-2.498-1.248-3.448-2.395-1.412-2.777-1.412-4.866v-.025c0-1.86.434-3.439 1.33-4.764s2.172-2.318 3.883-3.006c1.683-.688 3.747-1.019 6.109-1.019 1.113 0 2.253.127 3.367.357 1.14.229 2.226.586 3.312 1.044s2.145 1.019 3.15 1.681l-2.498 3.974a14.617 14.617 0 0 0-3.693-1.834c-1.222-.433-2.444-.662-3.638-.662-1.982 0-3.53.331-4.589 1.019-1.086.688-1.629 1.63-1.629 2.879v.025c0 .943.271 1.656.842 2.216a4.86 4.86 0 0 0 2.091 1.172c.842.255 2.009.509 3.53.79.054.025.109.025.163.025s.109.025.163.025c.081.025.163.025.244.051s.163.025.244.051c1.928.357 3.557.815 4.86 1.325s2.389 1.325 3.258 2.471c.869 1.121 1.303 2.675 1.303 4.636v.051c0 1.834-.462 3.413-1.385 4.713s-2.254 2.293-4.018 2.98c-1.765.688-3.855 1.019-6.326 1.019-1.493-.025-2.959-.153-4.344-.433zM29.54 29.532c-1.276-1.07-1.928-2.7-1.928-4.891 0-2.064.652-3.643 1.928-4.662 1.303-1.044 3.231-1.554 5.81-1.554h6l.299 3.77h-6.272c-1.032 0-1.792.204-2.308.611s-.76 1.019-.76 1.86c0 .866.326 1.528 1.005 1.961.652.433 1.656.637 2.987.637 1.629 0 2.851-.178 3.665-.509.787-.331 1.195-.866 1.195-1.579l.462 3.006c-.244.662-.679 1.223-1.276 1.656s-1.358.79-2.199.993c-.869.229-1.792.331-2.824.331-2.579-.025-4.507-.56-5.783-1.63zm11.621-11.998c0-1.172-.38-2.089-1.113-2.726s-1.792-.968-3.15-.968c-.869 0-1.711.127-2.552.382s-1.575.611-2.254 1.07l-3.421-2.7c.869-.968 2.036-1.707 3.448-2.242s3.014-.79 4.751-.79c1.901 0 3.53.306 4.86.917 1.358.611 2.389 1.503 3.095 2.675s1.059 2.573 1.059 4.229v13.501h-4.751V17.534h.027zM52.184 9.84h5.159v20.991h-5.159V9.84zm13.222 8.585c0-1.35-.353-2.42-1.059-3.133-.706-.739-1.711-1.095-3.041-1.095-1.276 0-2.254.331-2.932.968s-1.032 1.554-1.032 2.726l-.462-4.356c.679-1.274 1.548-2.267 2.579-2.955 1.059-.688 2.254-1.019 3.611-1.019 1.575 0 2.905.331 4.018 1.019s1.982 1.707 2.552 3.031c.57 1.325.869 2.929.869 4.815v12.431h-5.132V18.426h.027zm13.196 0c0-1.35-.353-2.42-1.086-3.133-.706-.739-1.738-1.095-3.068-1.095-1.249 0-2.226.357-2.905 1.07s-1.032 1.707-1.032 3.031l-1.005-4.458c.706-1.35 1.629-2.42 2.769-3.159s2.416-1.121 3.801-1.121c1.602 0 2.987.331 4.127 1.019s2.009 1.707 2.607 3.031c.597 1.325.896 2.929.896 4.815v12.431h-5.159V18.425h.054zM89.675 3.706l.028 26.038c0 1.073 1.242 1.753 2.263 1.23l24.041-13.006c.994-.55.994-1.884 0-2.434L91.939 2.502c-1.021-.55-2.263.131-2.263 1.204zm7.645 9.238 6.348 3.166c.524.262.524.968 0 1.256l-6.1 3.036c-.828.419-1.849-.157-1.849-1.047v-5.522c0-.759.883-1.256 1.601-.89zM126.143 29.763c-1.412-.713-2.497-1.758-3.231-3.133s-1.113-3.006-1.113-4.942v-3.414c0-1.911.38-3.541 1.113-4.891s1.819-2.395 3.231-3.082c1.412-.713 3.122-1.07 5.104-1.07 1.983 0 3.694.357 5.105 1.07s2.497 1.732 3.231 3.082c.732 1.35 1.113 2.98 1.113 4.891v3.49c0 1.911-.38 3.541-1.113 4.916-.734 1.35-1.819 2.395-3.231 3.108s-3.122 1.07-5.105 1.07c-1.982 0-3.692-.382-5.104-1.095zm8.253-4.738c.761-.764 1.114-1.86 1.114-3.286v-3.49c0-1.401-.38-2.496-1.114-3.261-.759-.764-1.792-1.146-3.177-1.146-1.358 0-2.416.382-3.177 1.146-.759.764-1.113 1.86-1.113 3.261v3.49c0 1.427.38 2.522 1.113 3.286.734.764 1.792 1.172 3.177 1.172s2.444-.382 3.177-1.172zM150.198 29.763c-1.412-.713-2.497-1.758-3.231-3.133s-1.113-3.006-1.113-4.942v-3.414c0-1.911.379-3.541 1.113-4.891s1.819-2.395 3.231-3.082c1.412-.713 3.122-1.07 5.105-1.07 1.982 0 3.692.357 5.104 1.07s2.497 1.732 3.231 3.082c.734 1.35 1.113 2.98 1.113 4.891v3.49c0 1.911-.379 3.541-1.113 4.916-.734 1.35-1.819 2.395-3.231 3.108s-3.122 1.07-5.104 1.07c-1.983 0-3.694-.382-5.105-1.095zm8.254-4.738c.761-.764 1.114-1.86 1.114-3.286v-3.49c0-1.401-.38-2.496-1.114-3.261-.759-.764-1.791-1.146-3.177-1.146-1.358 0-2.416.382-3.177 1.146-.759.764-1.113 1.86-1.113 3.261v3.49c0 1.427.38 2.522 1.113 3.286.734.764 1.792 1.172 3.177 1.172 1.386 0 2.444-.382 3.177-1.172z" />
    </symbol>
    <symbol id="icon-samboo-icon" viewBox="0 0 22 32">
      <path fill="#fff" style="fill:var(--color1, #fff)" d="M.519 4.739a4.698 4.698 0 0 1 1.419-1.51 6.46 6.46 0 0 1 2.004-.884 8.82 8.82 0 0 1 1.125-.215L1.643.141C.953-.26.091.243.091 1.042v4.806a3.81 3.81 0 0 1 .428-1.109zM7.461 13.784c-.378-.299-.824-.584-1.339-.859s-1.072-.563-1.665-.866a28.256 28.256 0 0 1-1.759-.972 7.3 7.3 0 0 1-1.419-1.088 4.538 4.538 0 0 1-.95-1.345 3.382 3.382 0 0 1-.235-.708v9.404c.256.208.55.398.89.57.399.201.817.373 1.258.511s.883.246 1.328.32c.445.077.855.113 1.234.113 1.3 0 2.271-.243 2.912-.725.641-.486.96-1.179.96-2.091 0-.489-.105-.915-.319-1.274a3.874 3.874 0 0 0-.897-.989zM16.102 8.893l.003 5.844c0 .243.263.394.473.275l5.036-2.919a.315.315 0 0 0 0-.546l-5.039-2.922a.31.31 0 0 0-.473.268zm1.602 2.074 1.328.711a.16.16 0 0 1 0 .282l-1.276.683a.262.262 0 0 1-.385-.232v-1.239c0-.176.182-.285.333-.204zM12.405 6.383l-.848-.493v.011c-.039-.025-.077-.053-.116-.077l-.683-.398-.263-.127c-.385-.173-.778-.317-1.184-.43s-.809-.197-1.213-.253a8.817 8.817 0 0 0-1.146-.081c-.498 0-.95.049-1.356.144s-.75.229-1.03.401c-.28.173-.498.38-.652.62s-.231.511-.231.81c0 .327.084.62.256.877s.414.503.732.736c.315.232.701.458 1.153.68s.96.451 1.531.687c.778.327 1.475.672 2.092 1.042a7.385 7.385 0 0 1 1.591 1.246c.442.461.781.993 1.016 1.584.235.595.354 1.285.354 2.074 0 .736-.098 1.394-.284 1.968l.28-.162a2.211 2.211 0 0 0 1.1-1.915V8.3c0-.792-.421-1.521-1.1-1.915zM4.938 21.406c-1.065 0-2.078-.092-3.042-.271a10.407 10.407 0 0 1-1.808-.507v1.961c0 .803.866 1.303 1.556.901l3.599-2.088c-.102 0-.203.003-.305.003z" />
    </symbol>
    <symbol id="twitter-icon" viewBox="0 0 38 32">
      <path fill="#fff" d="M0.534 27.255c4.14 0.373 7.838-0.628 11.181-3.156-3.495-0.322-5.819-2.070-7.126-5.344 1.171 0.136 2.24 0.17 3.376-0.136-4.174-1.035-6.108-4.683-6.006-7.584 1.052 0.526 2.121 0.882 3.393 0.899-1.917-1.391-3.003-3.173-3.291-5.412-0.221-1.68 0.119-3.257 0.984-4.75 4.14 4.869 9.365 7.55 15.779 7.991-0.187-1.018-0.204-1.985-0.085-2.952 0.373-2.833 2.698-5.463 5.463-6.159 2.833-0.73 5.327-0.085 7.482 1.917 0.102 0.102 0.322 0.153 0.475 0.119 1.493-0.305 2.884-0.831 4.208-1.578 0.085-0.051 0.187-0.102 0.356-0.187-0.577 1.781-1.663 3.088-3.139 4.123 1.425-0.119 2.765-0.526 4.072-1.069 0.034 0.034 0.051 0.068 0.085 0.085-0.611 0.713-1.205 1.476-1.866 2.155-0.526 0.543-1.137 0.984-1.697 1.493-0.119 0.119-0.238 0.322-0.238 0.475-0.017 7.889-3.122 14.218-9.535 18.832-2.715 1.951-5.802 3.003-9.111 3.427-3.122 0.407-6.21 0.221-9.23-0.662-1.917-0.543-3.716-1.357-5.395-2.409-0.017-0.017-0.051-0.051-0.136-0.119z"></path>
    </symbol>
    <symbol id="discord-icon" viewBox="0 0 45 32">
      <path d="M30.18 28.067c2.619-0.82 4.863-2.084 6.609-4.364-9.584 5.54-19.061 5.38-28.628 0.036 0.784 1.122 1.728 1.96 2.815 2.601s2.262 1.158 3.42 1.746c-0.499 0.624-1.104 1.283-1.603 2.013-0.463 0.695-0.998 0.944-1.853 0.837-3.242-0.374-6.146-1.461-8.551-3.705-0.071-0.071-0.143-0.143-0.214-0.196-0.98-0.891-1.39-1.87-1.318-3.313 0.392-6.769 2.084-13.183 5.059-19.275 0.143-0.303 0.392-0.588 0.659-0.784 2.369-1.675 4.97-2.833 7.838-3.331 0.552-0.089 1.104-0.16 1.657-0.196 0.232-0.018 0.463 0.142 0.677 0.303-3.403 1.14-6.645 2.512-9.495 4.81 9.798-4.667 19.525-4.899 29.287-0.125-2.601-2.102-5.629-3.42-8.783-4.454 0.232-0.481 0.57-0.57 1.069-0.534 3.42 0.321 6.467 1.568 9.246 3.527 0.267 0.178 0.499 0.445 0.641 0.73 2.156 4.365 3.616 8.978 4.436 13.788 0.392 2.227 0.588 4.489 0.624 6.752 0 0.321-0.125 0.695-0.321 0.944-1.817 2.352-4.24 3.812-7.090 4.543-1.104 0.285-2.244 0.374-3.385 0.534-0.178 0.018-0.445-0.036-0.552-0.16-0.748-0.873-1.479-1.781-2.245-2.726zM15.056 22.028c1.247 0 1.995-0.267 2.637-0.802 1.069-0.891 1.461-2.049 1.55-3.402 0.089-1.514-0.499-2.637-1.746-3.403-1.3-0.784-2.654-0.855-3.973-0.036-2.102 1.318-2.494 4.471-0.819 6.36 0.73 0.82 1.639 1.265 2.351 1.283zM28.862 22.081c0.428-0.107 0.873-0.143 1.283-0.303 2.512-0.98 3.313-4.347 1.568-6.574-1.354-1.728-3.866-1.888-5.416-0.321-1.015 1.033-1.336 2.298-1.158 3.723 0.249 1.888 1.888 3.403 3.723 3.474z"></path>
    </symbol>
    <symbol id="circle-up-icon" viewBox="0 0 32 32">
      <path d="M0 16c0 8.837 7.163 16 16 16s16-7.163 16-16-7.163-16-16-16-16 7.163-16 16zM29 16c0 7.18-5.82 13-13 13s-13-5.82-13-13 5.82-13 13-13 13 5.82 13 13z"></path>
      <path d="M22.086 20.914l2.829-2.829-8.914-8.914-8.914 8.914 2.828 2.828 6.086-6.086z"></path>
    </symbol>
  </defs>
</svg>