<svg aria-hidden="true" style="position:absolute;width:0;height:0;overflow:hidden" xmlns="http://www.w3.org/2000/svg">
  <defs>
    <symbol id="icon-samboo" viewBox="0 0 165 32">
      <path fill="#fff" style="fill:var(--color1, #fff)" d="M7.222 30.729a19.208 19.208 0 0 1-3.91-1.223A14.853 14.853 0 0 1 0 27.494l2.742-3.872c1.195.968 2.552 1.681 4.073 2.165a15.45 15.45 0 0 0 4.779.739c2.091 0 3.72-.357 4.887-1.044 1.168-.713 1.738-1.681 1.738-2.98 0-.892-.271-1.63-.787-2.165s-1.195-.917-2.036-1.172c-.842-.255-1.901-.484-3.204-.688-.054-.025-.081-.025-.136-.025s-.081 0-.136-.025l-.38-.051c-2.091-.331-3.828-.713-5.186-1.146s-2.498-1.248-3.448-2.395-1.412-2.777-1.412-4.866v-.025c0-1.86.434-3.439 1.33-4.764s2.172-2.318 3.883-3.006c1.683-.688 3.747-1.019 6.109-1.019 1.113 0 2.253.127 3.367.357 1.14.229 2.226.586 3.312 1.044s2.145 1.019 3.15 1.681l-2.498 3.974a14.617 14.617 0 0 0-3.693-1.834c-1.222-.433-2.444-.662-3.638-.662-1.982 0-3.53.331-4.589 1.019-1.086.688-1.629 1.63-1.629 2.879v.025c0 .943.271 1.656.842 2.216a4.86 4.86 0 0 0 2.091 1.172c.842.255 2.009.509 3.53.79.054.025.109.025.163.025s.109.025.163.025c.081.025.163.025.244.051s.163.025.244.051c1.928.357 3.557.815 4.86 1.325s2.389 1.325 3.258 2.471c.869 1.121 1.303 2.675 1.303 4.636v.051c0 1.834-.462 3.413-1.385 4.713s-2.254 2.293-4.018 2.98c-1.765.688-3.855 1.019-6.326 1.019-1.493-.025-2.959-.153-4.344-.433zM29.54 29.532c-1.276-1.07-1.928-2.7-1.928-4.891 0-2.064.652-3.643 1.928-4.662 1.303-1.044 3.231-1.554 5.81-1.554h6l.299 3.77h-6.272c-1.032 0-1.792.204-2.308.611s-.76 1.019-.76 1.86c0 .866.326 1.528 1.005 1.961.652.433 1.656.637 2.987.637 1.629 0 2.851-.178 3.665-.509.787-.331 1.195-.866 1.195-1.579l.462 3.006c-.244.662-.679 1.223-1.276 1.656s-1.358.79-2.199.993c-.869.229-1.792.331-2.824.331-2.579-.025-4.507-.56-5.783-1.63zm11.621-11.998c0-1.172-.38-2.089-1.113-2.726s-1.792-.968-3.15-.968c-.869 0-1.711.127-2.552.382s-1.575.611-2.254 1.07l-3.421-2.7c.869-.968 2.036-1.707 3.448-2.242s3.014-.79 4.751-.79c1.901 0 3.53.306 4.86.917 1.358.611 2.389 1.503 3.095 2.675s1.059 2.573 1.059 4.229v13.501h-4.751V17.534h.027zM52.184 9.84h5.159v20.991h-5.159V9.84zm13.222 8.585c0-1.35-.353-2.42-1.059-3.133-.706-.739-1.711-1.095-3.041-1.095-1.276 0-2.254.331-2.932.968s-1.032 1.554-1.032 2.726l-.462-4.356c.679-1.274 1.548-2.267 2.579-2.955 1.059-.688 2.254-1.019 3.611-1.019 1.575 0 2.905.331 4.018 1.019s1.982 1.707 2.552 3.031c.57 1.325.869 2.929.869 4.815v12.431h-5.132V18.426h.027zm13.196 0c0-1.35-.353-2.42-1.086-3.133-.706-.739-1.738-1.095-3.068-1.095-1.249 0-2.226.357-2.905 1.07s-1.032 1.707-1.032 3.031l-1.005-4.458c.706-1.35 1.629-2.42 2.769-3.159s2.416-1.121 3.801-1.121c1.602 0 2.987.331 4.127 1.019s2.009 1.707 2.607 3.031c.597 1.325.896 2.929.896 4.815v12.431h-5.159V18.425h.054zM89.675 3.706l.028 26.038c0 1.073 1.242 1.753 2.263 1.23l24.041-13.006c.994-.55.994-1.884 0-2.434L91.939 2.502c-1.021-.55-2.263.131-2.263 1.204zm7.645 9.238 6.348 3.166c.524.262.524.968 0 1.256l-6.1 3.036c-.828.419-1.849-.157-1.849-1.047v-5.522c0-.759.883-1.256 1.601-.89zM126.143 29.763c-1.412-.713-2.497-1.758-3.231-3.133s-1.113-3.006-1.113-4.942v-3.414c0-1.911.38-3.541 1.113-4.891s1.819-2.395 3.231-3.082c1.412-.713 3.122-1.07 5.104-1.07 1.983 0 3.694.357 5.105 1.07s2.497 1.732 3.231 3.082c.732 1.35 1.113 2.98 1.113 4.891v3.49c0 1.911-.38 3.541-1.113 4.916-.734 1.35-1.819 2.395-3.231 3.108s-3.122 1.07-5.105 1.07c-1.982 0-3.692-.382-5.104-1.095zm8.253-4.738c.761-.764 1.114-1.86 1.114-3.286v-3.49c0-1.401-.38-2.496-1.114-3.261-.759-.764-1.792-1.146-3.177-1.146-1.358 0-2.416.382-3.177 1.146-.759.764-1.113 1.86-1.113 3.261v3.49c0 1.427.38 2.522 1.113 3.286.734.764 1.792 1.172 3.177 1.172s2.444-.382 3.177-1.172zM150.198 29.763c-1.412-.713-2.497-1.758-3.231-3.133s-1.113-3.006-1.113-4.942v-3.414c0-1.911.379-3.541 1.113-4.891s1.819-2.395 3.231-3.082c1.412-.713 3.122-1.07 5.105-1.07 1.982 0 3.692.357 5.104 1.07s2.497 1.732 3.231 3.082c.734 1.35 1.113 2.98 1.113 4.891v3.49c0 1.911-.379 3.541-1.113 4.916-.734 1.35-1.819 2.395-3.231 3.108s-3.122 1.07-5.104 1.07c-1.983 0-3.694-.382-5.105-1.095zm8.254-4.738c.761-.764 1.114-1.86 1.114-3.286v-3.49c0-1.401-.38-2.496-1.114-3.261-.759-.764-1.791-1.146-3.177-1.146-1.358 0-2.416.382-3.177 1.146-.759.764-1.113 1.86-1.113 3.261v3.49c0 1.427.38 2.522 1.113 3.286.734.764 1.792 1.172 3.177 1.172 1.386 0 2.444-.382 3.177-1.172z"/>
    </symbol>
    <symbol id="icon-samboo-icon" viewBox="0 0 22 32">
      <path fill="#fff" style="fill:var(--color1, #fff)" d="M.519 4.739a4.698 4.698 0 0 1 1.419-1.51 6.46 6.46 0 0 1 2.004-.884 8.82 8.82 0 0 1 1.125-.215L1.643.141C.953-.26.091.243.091 1.042v4.806a3.81 3.81 0 0 1 .428-1.109zM7.461 13.784c-.378-.299-.824-.584-1.339-.859s-1.072-.563-1.665-.866a28.256 28.256 0 0 1-1.759-.972 7.3 7.3 0 0 1-1.419-1.088 4.538 4.538 0 0 1-.95-1.345 3.382 3.382 0 0 1-.235-.708v9.404c.256.208.55.398.89.57.399.201.817.373 1.258.511s.883.246 1.328.32c.445.077.855.113 1.234.113 1.3 0 2.271-.243 2.912-.725.641-.486.96-1.179.96-2.091 0-.489-.105-.915-.319-1.274a3.874 3.874 0 0 0-.897-.989zM16.102 8.893l.003 5.844c0 .243.263.394.473.275l5.036-2.919a.315.315 0 0 0 0-.546l-5.039-2.922a.31.31 0 0 0-.473.268zm1.602 2.074 1.328.711a.16.16 0 0 1 0 .282l-1.276.683a.262.262 0 0 1-.385-.232v-1.239c0-.176.182-.285.333-.204zM12.405 6.383l-.848-.493v.011c-.039-.025-.077-.053-.116-.077l-.683-.398-.263-.127c-.385-.173-.778-.317-1.184-.43s-.809-.197-1.213-.253a8.817 8.817 0 0 0-1.146-.081c-.498 0-.95.049-1.356.144s-.75.229-1.03.401c-.28.173-.498.38-.652.62s-.231.511-.231.81c0 .327.084.62.256.877s.414.503.732.736c.315.232.701.458 1.153.68s.96.451 1.531.687c.778.327 1.475.672 2.092 1.042a7.385 7.385 0 0 1 1.591 1.246c.442.461.781.993 1.016 1.584.235.595.354 1.285.354 2.074 0 .736-.098 1.394-.284 1.968l.28-.162a2.211 2.211 0 0 0 1.1-1.915V8.3c0-.792-.421-1.521-1.1-1.915zM4.938 21.406c-1.065 0-2.078-.092-3.042-.271a10.407 10.407 0 0 1-1.808-.507v1.961c0 .803.866 1.303 1.556.901l3.599-2.088c-.102 0-.203.003-.305.003z"/>
    </symbol>
  </defs>
</svg>
