<svg aria-hidden="true" style="position: absolute; width: 0; height: 0; overflow: hidden;" version="1.1" xmlns="http://www.w3.org/2000/svg" xmlns:xlink="http://www.w3.org/1999/xlink">
<defs>
<symbol id="icon-Group-1847plate-big1235999994444444" viewBox="0 0 32 32">
<path fill="#bacea3" style="fill: var(--color1, #bacea3)" d="M16.255 0.371c8.503-0.070 15.857 7.025 15.75 15.984-0.118 8.48-7.184 15.653-15.954 15.515-4.353-0.065-8.095-1.659-11.12-4.784-3.1-3.204-4.573-7.080-4.451-11.558 0.245-8.245 7.204-15.24 15.775-15.157zM6.635 26.698c5.427 4.927 14.139 5.147 19.762-0.578 5.655-5.754 5.19-14.366 0.41-19.596-0.032 0.050-0.067 0.098-0.106 0.143-1.135 1.13-2.264 2.259-3.388 3.386-0.029 0.037-0.069 0.064-0.114 0.076s-0.093 0.009-0.137-0.008c-0.322-0.095-0.65-0.179-0.977-0.258-0.161-0.041-0.324-0.072-0.487-0.106l-0.030-0.055 4.22-4.197c-5.52-5.013-14.593-5.126-20.185 1.088-5.314 5.906-4.442 14.318 0.029 19.086 1.274-1.233 2.488-2.529 3.83-3.735 0.016 0.066 0.021 0.084 0.025 0.104 0.084 0.48 0.179 0.957 0.249 1.432 0.003 0.035-0.001 0.070-0.011 0.103s-0.028 0.064-0.051 0.090c-0.334 0.346-0.674 0.688-1.018 1.027-0.669 0.669-1.342 1.33-2.021 1.997z"></path>
<path fill="#bacea3" style="fill: var(--color1, #bacea3)" d="M15.889 4.070c0.83 0.782 1.484 1.673 1.74 2.797 0.399 1.761 0.052 3.354-1.135 4.739-0.145 0.179-0.311 0.326-0.464 0.49-0.109 0.118-0.206 0.113-0.322 0-0.608-0.568-1.087-1.26-1.405-2.030-0.324-0.844-0.426-1.756-0.295-2.651 0.165-1.362 0.845-2.445 1.856-3.34 0.002-0.004 0.011-0.004 0.025-0.007z"></path>
<path fill="#bacea3" style="fill: var(--color1, #bacea3)" d="M16.062 15.587c0.007-0.819 0.148-1.632 0.419-2.405 0.619-1.623 1.82-2.506 3.524-2.701 0.443-0.027 0.887-0.016 1.328 0.032 0.236 0.014 0.299 0.1 0.295 0.358-0.013 1.611-0.63 2.914-1.92 3.889-0.926 0.668-1.979 1.138-3.094 1.382-0.103 0.027-0.208 0.049-0.313 0.066-0.19 0.025-0.24-0.020-0.254-0.211-0.004-0.070-0.004-0.14 0-0.209-0.002-0.073 0.011-0.136 0.016-0.2z"></path>
<path fill="#bacea3" style="fill: var(--color1, #bacea3)" d="M20.578 20.974c0.247 0.014 0.492 0.027 0.737 0.045s0.308 0.089 0.315 0.335c0.004 0.541-0.077 1.079-0.24 1.595-0.331 1.131-1.074 1.936-2.038 2.568s-2.015 0.97-3.116 1.217c-0.123 0.027-0.179-0.012-0.179-0.141 0.014-0.374 0.018-0.748 0.048-1.122 0.043-0.781 0.241-1.546 0.583-2.25 0.746-1.432 1.969-2.133 3.554-2.232 0.111 0 0.224 0 0.336 0l-0.002-0.014z"></path>
<path fill="#bacea3" style="fill: var(--color1, #bacea3)" d="M11.112 10.423c1.253 0.016 2.343 0.406 3.241 1.292 0.601 0.594 0.895 1.339 1.095 2.148 0.154 0.676 0.234 1.367 0.238 2.060 0 0.263-0.066 0.326-0.317 0.268-1.294-0.29-2.49-0.757-3.526-1.584-0.47-0.366-0.862-0.823-1.152-1.343s-0.473-1.093-0.538-1.685c-0.033-0.243-0.053-0.488-0.061-0.734 0-0.215 0.064-0.293 0.272-0.326 0.247-0.039 0.498-0.064 0.746-0.097z"></path>
<path fill="#bacea3" style="fill: var(--color1, #bacea3)" d="M15.675 26.137c0 0.161 0 0.32 0 0.481 0 0.1-0.054 0.136-0.159 0.114-1.321-0.232-2.569-0.773-3.642-1.577-1.043-0.8-1.58-1.87-1.72-3.157-0.027-0.249-0.021-0.503-0.034-0.753-0.002-0.024-0-0.047 0.007-0.070s0.018-0.044 0.033-0.062c0.015-0.018 0.033-0.033 0.054-0.045s0.044-0.018 0.067-0.020c0.881-0.18 1.796-0.096 2.629 0.242 1.375 0.537 2.18 1.579 2.506 2.991 0.14 0.607 0.2 1.233 0.297 1.849l-0.038 0.007z"></path>
<path fill="#bacea3" style="fill: var(--color1, #bacea3)" d="M16.044 20.841c0.013-0.825 0.16-1.642 0.437-2.42 0.537-1.451 1.593-2.314 3.091-2.624 0.609-0.103 1.231-0.109 1.842-0.016 0.145 0.016 0.179 0.116 0.179 0.24 0.043 0.772-0.106 1.542-0.431 2.243-0.37 0.805-0.977 1.391-1.69 1.892-0.963 0.677-2.044 1.052-3.18 1.303-0.206 0.045-0.234 0.021-0.245-0.179-0.002-0.15-0.002-0.295-0.002-0.438z"></path>
<path fill="#bacea3" style="fill: var(--color1, #bacea3)" d="M11.124 15.726c1.041-0.037 2.063 0.291 2.889 0.927 0.659 0.501 1.022 1.196 1.281 1.956 0.276 0.839 0.408 1.718 0.392 2.6 0 0.267 0 0.276-0.272 0.224-1.564-0.31-2.976-0.927-4.107-2.087-0.602-0.633-0.991-1.438-1.111-2.303-0.049-0.301-0.080-0.605-0.095-0.909-0.013-0.27 0.091-0.369 0.358-0.388 0.14-0.013 0.279-0.020 0.417-0.025 0.077 0.002 0.158 0.005 0.249 0.005z"></path>
</symbol>
<symbol id="icon-Group-1847plate-big123599999" viewBox="0 0 32 32">
<path fill="#bacea3" style="fill: var(--color1, #bacea3)" d="M16.255 0.371c8.503-0.070 15.857 7.025 15.75 15.984-0.118 8.48-7.184 15.653-15.954 15.515-4.353-0.065-8.095-1.659-11.12-4.784-3.1-3.204-4.573-7.080-4.451-11.558 0.245-8.245 7.204-15.24 15.775-15.157zM6.635 26.698c5.427 4.927 14.139 5.147 19.762-0.578 5.655-5.754 5.19-14.366 0.41-19.596-0.032 0.050-0.067 0.098-0.106 0.143-1.135 1.13-2.264 2.259-3.388 3.386-0.029 0.037-0.069 0.064-0.114 0.076s-0.093 0.009-0.137-0.008c-0.322-0.095-0.65-0.179-0.977-0.258-0.161-0.041-0.324-0.072-0.487-0.106l-0.030-0.055 4.22-4.197c-5.52-5.013-14.593-5.126-20.185 1.088-5.314 5.906-4.442 14.318 0.029 19.086 1.274-1.233 2.488-2.529 3.83-3.735 0.016 0.066 0.021 0.084 0.025 0.104 0.084 0.48 0.179 0.957 0.249 1.432 0.003 0.035-0.001 0.070-0.011 0.103s-0.028 0.064-0.051 0.090c-0.334 0.346-0.674 0.688-1.018 1.027-0.669 0.669-1.342 1.33-2.021 1.997z"></path>
<path fill="#bacea3" style="fill: var(--color1, #bacea3)" d="M15.889 4.070c0.83 0.782 1.484 1.673 1.74 2.797 0.399 1.761 0.052 3.354-1.135 4.739-0.145 0.179-0.311 0.326-0.464 0.49-0.109 0.118-0.206 0.113-0.322 0-0.608-0.568-1.087-1.26-1.405-2.030-0.324-0.844-0.426-1.756-0.295-2.651 0.165-1.362 0.845-2.445 1.856-3.34 0.002-0.004 0.011-0.004 0.025-0.007z"></path>
<path fill="#bacea3" style="fill: var(--color1, #bacea3)" d="M16.062 15.587c0.007-0.819 0.148-1.632 0.419-2.405 0.619-1.623 1.82-2.506 3.524-2.701 0.443-0.027 0.887-0.016 1.328 0.032 0.236 0.014 0.299 0.1 0.295 0.358-0.013 1.611-0.63 2.914-1.92 3.889-0.926 0.668-1.979 1.138-3.094 1.382-0.103 0.027-0.208 0.049-0.313 0.066-0.19 0.025-0.24-0.020-0.254-0.211-0.004-0.070-0.004-0.14 0-0.209-0.002-0.073 0.011-0.136 0.016-0.2z"></path>
<path fill="#bacea3" style="fill: var(--color1, #bacea3)" d="M20.578 20.974c0.247 0.014 0.492 0.027 0.737 0.045s0.308 0.089 0.315 0.335c0.004 0.541-0.077 1.079-0.24 1.595-0.331 1.131-1.074 1.936-2.038 2.568s-2.015 0.97-3.116 1.217c-0.123 0.027-0.179-0.012-0.179-0.141 0.014-0.374 0.018-0.748 0.048-1.122 0.043-0.781 0.241-1.546 0.583-2.25 0.746-1.432 1.969-2.133 3.554-2.232 0.111 0 0.224 0 0.336 0l-0.002-0.014z"></path>
<path fill="#bacea3" style="fill: var(--color1, #bacea3)" d="M11.112 10.423c1.253 0.016 2.343 0.406 3.241 1.292 0.601 0.594 0.895 1.339 1.095 2.148 0.154 0.676 0.234 1.367 0.238 2.060 0 0.263-0.066 0.326-0.317 0.268-1.294-0.29-2.49-0.757-3.526-1.584-0.47-0.366-0.862-0.823-1.152-1.343s-0.473-1.093-0.538-1.685c-0.033-0.243-0.053-0.488-0.061-0.734 0-0.215 0.064-0.293 0.272-0.326 0.247-0.039 0.498-0.064 0.746-0.097z"></path>
<path fill="#bacea3" style="fill: var(--color1, #bacea3)" d="M15.675 26.137c0 0.161 0 0.32 0 0.481 0 0.1-0.054 0.136-0.159 0.114-1.321-0.232-2.569-0.773-3.642-1.577-1.043-0.8-1.58-1.87-1.72-3.157-0.027-0.249-0.021-0.503-0.034-0.753-0.002-0.024-0-0.047 0.007-0.070s0.018-0.044 0.033-0.062c0.015-0.018 0.033-0.033 0.054-0.045s0.044-0.018 0.067-0.020c0.881-0.18 1.796-0.096 2.629 0.242 1.375 0.537 2.18 1.579 2.506 2.991 0.14 0.607 0.2 1.233 0.297 1.849l-0.038 0.007z"></path>
<path fill="#bacea3" style="fill: var(--color1, #bacea3)" d="M16.044 20.841c0.013-0.825 0.16-1.642 0.437-2.42 0.537-1.451 1.593-2.314 3.091-2.624 0.609-0.103 1.231-0.109 1.842-0.016 0.145 0.016 0.179 0.116 0.179 0.24 0.043 0.772-0.106 1.542-0.431 2.243-0.37 0.805-0.977 1.391-1.69 1.892-0.963 0.677-2.044 1.052-3.18 1.303-0.206 0.045-0.234 0.021-0.245-0.179-0.002-0.15-0.002-0.295-0.002-0.438z"></path>
<path fill="#bacea3" style="fill: var(--color1, #bacea3)" d="M11.124 15.726c1.041-0.037 2.063 0.291 2.889 0.927 0.659 0.501 1.022 1.196 1.281 1.956 0.276 0.839 0.408 1.718 0.392 2.6 0 0.267 0 0.276-0.272 0.224-1.564-0.31-2.976-0.927-4.107-2.087-0.602-0.633-0.991-1.438-1.111-2.303-0.049-0.301-0.080-0.605-0.095-0.909-0.013-0.27 0.091-0.369 0.358-0.388 0.14-0.013 0.279-0.020 0.417-0.025 0.077 0.002 0.158 0.005 0.249 0.005z"></path>
</symbol>
</defs>
</svg>
