<svg aria-hidden="true" style="position:absolute;width:0;height:0;overflow:hidden" xmlns="http://www.w3.org/2000/svg">
  <defs>
    <symbol id="icon-plate-big123" viewBox="0 0 32 32">
      <path fill="#bacea3" style="fill:var(--color1, #bacea3)" d="M16.255.371c8.503-.07 15.857 7.025 15.75 15.984-.118 8.48-7.184 15.653-15.954 15.515-4.353-.065-8.095-1.659-11.12-4.784-3.1-3.204-4.573-7.08-4.451-11.558C.725 7.283 7.684.288 16.255.371zm-9.62 26.327c5.427 4.927 14.139 5.147 19.762-.578 5.655-5.754 5.19-14.366.41-19.596a1.23 1.23 0 0 1-.106.143c-1.135 1.13-2.264 2.259-3.388 3.386a.216.216 0 0 1-.251.068c-.322-.095-.65-.179-.977-.258-.161-.041-.324-.072-.487-.106l-.03-.055 4.22-4.197C20.268.492 11.195.379 5.603 6.593c-5.314 5.906-4.442 14.318.029 19.086 1.274-1.233 2.488-2.529 3.83-3.735l.025.104c.084.48.179.957.249 1.432.003.035-.001.07-.011.103s-.028.064-.051.09c-.334.346-.674.688-1.018 1.027-.669.669-1.342 1.33-2.021 1.997z"/>
      <path fill="#bacea3" style="fill:var(--color1, #bacea3)" d="M15.889 4.07c.83.782 1.484 1.673 1.74 2.797.399 1.761.052 3.354-1.135 4.739-.145.179-.311.326-.464.49-.109.118-.206.113-.322 0a5.815 5.815 0 0 1-1.405-2.03 5.266 5.266 0 0 1-.295-2.651c.165-1.362.845-2.445 1.856-3.34.002-.004.011-.004.025-.007zM16.062 15.587a7.463 7.463 0 0 1 .419-2.405c.619-1.623 1.82-2.506 3.524-2.701a7.854 7.854 0 0 1 1.328.032c.236.014.299.1.295.358-.013 1.611-.63 2.914-1.92 3.889a8.332 8.332 0 0 1-3.094 1.382 3.347 3.347 0 0 1-.313.066c-.19.025-.24-.02-.254-.211a1.822 1.822 0 0 1 0-.209c-.002-.073.011-.136.016-.2zM20.578 20.974c.247.014.492.027.737.045s.308.089.315.335a5.167 5.167 0 0 1-.24 1.595c-.331 1.131-1.074 1.936-2.038 2.568s-2.015.97-3.116 1.217c-.123.027-.179-.012-.179-.141.014-.374.018-.748.048-1.122a5.89 5.89 0 0 1 .583-2.25c.746-1.432 1.969-2.133 3.554-2.232h.336l-.002-.014zM11.112 10.423c1.253.016 2.343.406 3.241 1.292.601.594.895 1.339 1.095 2.148.154.676.234 1.367.238 2.06 0 .263-.066.326-.317.268-1.294-.29-2.49-.757-3.526-1.584a4.45 4.45 0 0 1-1.69-3.028 7.191 7.191 0 0 1-.061-.734c0-.215.064-.293.272-.326.247-.039.498-.064.746-.097zM15.675 26.137v.481c0 .1-.054.136-.159.114a8.538 8.538 0 0 1-3.642-1.577c-1.043-.8-1.58-1.87-1.72-3.157-.027-.249-.021-.503-.034-.753a.184.184 0 0 1 .094-.177.162.162 0 0 1 .067-.02 4.564 4.564 0 0 1 2.629.242c1.375.537 2.18 1.579 2.506 2.991.14.607.2 1.233.297 1.849l-.038.007zM16.044 20.841c.013-.825.16-1.642.437-2.42.537-1.451 1.593-2.314 3.091-2.624a5.807 5.807 0 0 1 1.842-.016c.145.016.179.116.179.24a4.71 4.71 0 0 1-.431 2.243c-.37.805-.977 1.391-1.69 1.892-.963.677-2.044 1.052-3.18 1.303-.206.045-.234.021-.245-.179-.002-.15-.002-.295-.002-.438zM11.124 15.726a4.476 4.476 0 0 1 2.889.927c.659.501 1.022 1.196 1.281 1.956.276.839.408 1.718.392 2.6 0 .267 0 .276-.272.224-1.564-.31-2.976-.927-4.107-2.087a4.174 4.174 0 0 1-1.111-2.303 8.165 8.165 0 0 1-.095-.909c-.013-.27.091-.369.358-.388.14-.013.279-.02.417-.025.077.002.158.005.249.005z"/>
    </symbol>
  </defs>
</svg>
